solid OpenSCAD_Model
  facet normal 0.994522 0.104529 0
    outer loop
      vertex 15 0 6
      vertex 14.6722 3.11868 4
      vertex 14.6722 3.11868 6
    endloop
  endfacet
  facet normal 0.994522 0.104529 0
    outer loop
      vertex 14.6722 3.11868 4
      vertex 15 0 6
      vertex 15 0 4
    endloop
  endfacet
  facet normal -0.994522 0.104529 0
    outer loop
      vertex -15 0 4
      vertex -14.6722 3.11868 6
      vertex -14.6722 3.11868 4
    endloop
  endfacet
  facet normal -0.994522 0.104529 0
    outer loop
      vertex -14.6722 3.11868 6
      vertex -15 0 4
      vertex -15 0 6
    endloop
  endfacet
  facet normal 0 1 -0
    outer loop
      vertex 1.56793 14.9178 4
      vertex -1.56793 14.9178 6
      vertex 1.56793 14.9178 6
    endloop
  endfacet
  facet normal 0 1 0
    outer loop
      vertex -1.56793 14.9178 6
      vertex 1.56793 14.9178 4
      vertex -1.56793 14.9178 4
    endloop
  endfacet
  facet normal 0.743145 0.669131 0
    outer loop
      vertex 12.1353 8.81678 6
      vertex 10.037 11.1472 4
      vertex 10.037 11.1472 6
    endloop
  endfacet
  facet normal 0.743145 0.669131 0
    outer loop
      vertex 10.037 11.1472 4
      vertex 12.1353 8.81678 6
      vertex 12.1353 8.81678 4
    endloop
  endfacet
  facet normal -0.587785 0.809017 0
    outer loop
      vertex -7.5 12.9904 4
      vertex -10.037 11.1472 6
      vertex -7.5 12.9904 6
    endloop
  endfacet
  facet normal -0.587785 0.809017 0
    outer loop
      vertex -10.037 11.1472 6
      vertex -7.5 12.9904 4
      vertex -10.037 11.1472 4
    endloop
  endfacet
  facet normal -0.207912 0.978148 0
    outer loop
      vertex -1.56793 14.9178 4
      vertex -4.63525 14.2658 6
      vertex -1.56793 14.9178 6
    endloop
  endfacet
  facet normal -0.207912 0.978148 0
    outer loop
      vertex -4.63525 14.2658 6
      vertex -1.56793 14.9178 4
      vertex -4.63525 14.2658 4
    endloop
  endfacet
  facet normal 0.866025 0.5 0
    outer loop
      vertex 13.7032 6.10105 6
      vertex 12.1353 8.81678 4
      vertex 12.1353 8.81678 6
    endloop
  endfacet
  facet normal 0.866025 0.5 0
    outer loop
      vertex 12.1353 8.81678 4
      vertex 13.7032 6.10105 6
      vertex 13.7032 6.10105 4
    endloop
  endfacet
  facet normal 0.951057 0.309017 0
    outer loop
      vertex 14.6722 3.11868 6
      vertex 13.7032 6.10105 4
      vertex 13.7032 6.10105 6
    endloop
  endfacet
  facet normal 0.951057 0.309017 0
    outer loop
      vertex 13.7032 6.10105 4
      vertex 14.6722 3.11868 6
      vertex 14.6722 3.11868 4
    endloop
  endfacet
  facet normal 0.406737 0.913545 -0
    outer loop
      vertex 7.5 12.9904 4
      vertex 4.63525 14.2658 6
      vertex 7.5 12.9904 6
    endloop
  endfacet
  facet normal 0.406737 0.913545 0
    outer loop
      vertex 4.63525 14.2658 6
      vertex 7.5 12.9904 4
      vertex 4.63525 14.2658 4
    endloop
  endfacet
  facet normal 0.207912 0.978148 -0
    outer loop
      vertex 4.63525 14.2658 4
      vertex 1.56793 14.9178 6
      vertex 4.63525 14.2658 6
    endloop
  endfacet
  facet normal 0.207912 0.978148 0
    outer loop
      vertex 1.56793 14.9178 6
      vertex 4.63525 14.2658 4
      vertex 1.56793 14.9178 4
    endloop
  endfacet
  facet normal 0.587785 0.809017 -0
    outer loop
      vertex 10.037 11.1472 4
      vertex 7.5 12.9904 6
      vertex 10.037 11.1472 6
    endloop
  endfacet
  facet normal 0.587785 0.809017 0
    outer loop
      vertex 7.5 12.9904 6
      vertex 10.037 11.1472 4
      vertex 7.5 12.9904 4
    endloop
  endfacet
  facet normal -0.866025 0.5 0
    outer loop
      vertex -13.7032 6.10105 4
      vertex -12.1353 8.81678 6
      vertex -12.1353 8.81678 4
    endloop
  endfacet
  facet normal -0.866025 0.5 0
    outer loop
      vertex -12.1353 8.81678 6
      vertex -13.7032 6.10105 4
      vertex -13.7032 6.10105 6
    endloop
  endfacet
  facet normal -0.743145 0.669131 0
    outer loop
      vertex -12.1353 8.81678 4
      vertex -10.037 11.1472 6
      vertex -10.037 11.1472 4
    endloop
  endfacet
  facet normal -0.743145 0.669131 0
    outer loop
      vertex -10.037 11.1472 6
      vertex -12.1353 8.81678 4
      vertex -12.1353 8.81678 6
    endloop
  endfacet
  facet normal -0.951057 0.309017 0
    outer loop
      vertex -14.6722 3.11868 4
      vertex -13.7032 6.10105 6
      vertex -13.7032 6.10105 4
    endloop
  endfacet
  facet normal -0.951057 0.309017 0
    outer loop
      vertex -13.7032 6.10105 6
      vertex -14.6722 3.11868 4
      vertex -14.6722 3.11868 6
    endloop
  endfacet
  facet normal 0 0 1
    outer loop
      vertex 6.1 0 6
      vertex 15 0 6
      vertex 14.6722 3.11868 6
    endloop
  endfacet
  facet normal 0 0 1
    outer loop
      vertex 5.80144 1.885 6
      vertex 14.6722 3.11868 6
      vertex 13.7032 6.10105 6
    endloop
  endfacet
  facet normal 0 0 1
    outer loop
      vertex 15 0 6
      vertex 6.1 0 6
      vertex 14.6722 -3.11868 6
    endloop
  endfacet
  facet normal 0 0 1
    outer loop
      vertex 4.935 3.58549 6
      vertex 13.7032 6.10105 6
      vertex 12.1353 8.81678 6
    endloop
  endfacet
  facet normal -0 0 1
    outer loop
      vertex 5.80144 -1.885 6
      vertex 14.6722 -3.11868 6
      vertex 6.1 0 6
    endloop
  endfacet
  facet normal 0 0 1
    outer loop
      vertex 4.935 3.58549 6
      vertex 12.1353 8.81678 6
      vertex 10.037 11.1472 6
    endloop
  endfacet
  facet normal 0 0 1
    outer loop
      vertex 14.6722 -3.11868 6
      vertex 5.80144 -1.885 6
      vertex 13.7032 -6.10105 6
    endloop
  endfacet
  facet normal 0 0 1
    outer loop
      vertex 3.58549 4.935 6
      vertex 10.037 11.1472 6
      vertex 7.5 12.9904 6
    endloop
  endfacet
  facet normal -0 0 1
    outer loop
      vertex 4.935 -3.58549 6
      vertex 13.7032 -6.10105 6
      vertex 5.80144 -1.885 6
    endloop
  endfacet
  facet normal 0 0 1
    outer loop
      vertex 13.7032 -6.10105 6
      vertex 4.935 -3.58549 6
      vertex 12.1353 -8.81678 6
    endloop
  endfacet
  facet normal 0 0 1
    outer loop
      vertex 14.6722 3.11868 6
      vertex 5.80144 1.885 6
      vertex 6.1 0 6
    endloop
  endfacet
  facet normal 0 0 1
    outer loop
      vertex 13.7032 6.10105 6
      vertex 4.935 3.58549 6
      vertex 5.80144 1.885 6
    endloop
  endfacet
  facet normal 0 0 1
    outer loop
      vertex 1.885 5.80144 6
      vertex 7.5 12.9904 6
      vertex 4.63525 14.2658 6
    endloop
  endfacet
  facet normal 0 0 1
    outer loop
      vertex 10.037 11.1472 6
      vertex 3.58549 4.935 6
      vertex 4.935 3.58549 6
    endloop
  endfacet
  facet normal 0 0 1
    outer loop
      vertex 7.5 12.9904 6
      vertex 1.885 5.80144 6
      vertex 3.58549 4.935 6
    endloop
  endfacet
  facet normal 0 0 1
    outer loop
      vertex 1.56793 14.9178 6
      vertex 1.885 5.80144 6
      vertex 4.63525 14.2658 6
    endloop
  endfacet
  facet normal 0 0 1
    outer loop
      vertex 1.56793 14.9178 6
      vertex 0 6.1 6
      vertex 1.885 5.80144 6
    endloop
  endfacet
  facet normal -0 0 1
    outer loop
      vertex -1.56793 14.9178 6
      vertex 0 6.1 6
      vertex 1.56793 14.9178 6
    endloop
  endfacet
  facet normal 0 0 1
    outer loop
      vertex -1.56793 14.9178 6
      vertex -1.885 5.80144 6
      vertex 0 6.1 6
    endloop
  endfacet
  facet normal -0 0 1
    outer loop
      vertex -4.63525 14.2658 6
      vertex -1.885 5.80144 6
      vertex -1.56793 14.9178 6
    endloop
  endfacet
  facet normal -0 0 1
    outer loop
      vertex -7.5 12.9904 6
      vertex -1.885 5.80144 6
      vertex -4.63525 14.2658 6
    endloop
  endfacet
  facet normal 0 0 1
    outer loop
      vertex -1.885 5.80144 6
      vertex -7.5 12.9904 6
      vertex -3.58549 4.935 6
    endloop
  endfacet
  facet normal -0 0 1
    outer loop
      vertex -10.037 11.1472 6
      vertex -3.58549 4.935 6
      vertex -7.5 12.9904 6
    endloop
  endfacet
  facet normal 0 0 1
    outer loop
      vertex -3.58549 4.935 6
      vertex -10.037 11.1472 6
      vertex -4.935 3.58549 6
    endloop
  endfacet
  facet normal -0 0 1
    outer loop
      vertex -12.1353 8.81678 6
      vertex -4.935 3.58549 6
      vertex -10.037 11.1472 6
    endloop
  endfacet
  facet normal 0 0 1
    outer loop
      vertex 12.1353 -8.81678 6
      vertex 4.935 -3.58549 6
      vertex 10.037 -11.1472 6
    endloop
  endfacet
  facet normal -0 0 1
    outer loop
      vertex 3.58549 -4.935 6
      vertex 10.037 -11.1472 6
      vertex 4.935 -3.58549 6
    endloop
  endfacet
  facet normal 0 0 1
    outer loop
      vertex 10.037 -11.1472 6
      vertex 3.58549 -4.935 6
      vertex 7.5 -12.9904 6
    endloop
  endfacet
  facet normal -0 0 1
    outer loop
      vertex 1.885 -5.80144 6
      vertex 7.5 -12.9904 6
      vertex 3.58549 -4.935 6
    endloop
  endfacet
  facet normal 0 0 1
    outer loop
      vertex 7.5 -12.9904 6
      vertex 1.885 -5.80144 6
      vertex 4.63525 -14.2658 6
    endloop
  endfacet
  facet normal 0 0 1
    outer loop
      vertex 1.885 -5.80144 6
      vertex 1.56793 -14.9178 6
      vertex 4.63525 -14.2658 6
    endloop
  endfacet
  facet normal -0 0 1
    outer loop
      vertex 0 -6.1 6
      vertex 1.56793 -14.9178 6
      vertex 1.885 -5.80144 6
    endloop
  endfacet
  facet normal 0 0 1
    outer loop
      vertex 0 -6.1 6
      vertex -1.56793 -14.9178 6
      vertex 1.56793 -14.9178 6
    endloop
  endfacet
  facet normal 0 0 1
    outer loop
      vertex -1.885 -5.80144 6
      vertex -1.56793 -14.9178 6
      vertex 0 -6.1 6
    endloop
  endfacet
  facet normal 0 0 1
    outer loop
      vertex -7.5 -12.9904 6
      vertex -1.885 -5.80144 6
      vertex -3.58549 -4.935 6
    endloop
  endfacet
  facet normal 0 0 1
    outer loop
      vertex -1.885 -5.80144 6
      vertex -4.63525 -14.2658 6
      vertex -1.56793 -14.9178 6
    endloop
  endfacet
  facet normal 0 0 1
    outer loop
      vertex -10.037 -11.1472 6
      vertex -3.58549 -4.935 6
      vertex -4.935 -3.58549 6
    endloop
  endfacet
  facet normal 0 0 1
    outer loop
      vertex -13.7032 -6.10105 6
      vertex -4.935 -3.58549 6
      vertex -5.80144 -1.885 6
    endloop
  endfacet
  facet normal 0 0 1
    outer loop
      vertex -14.6722 -3.11868 6
      vertex -5.80144 -1.885 6
      vertex -6.1 0 6
    endloop
  endfacet
  facet normal -0 0 1
    outer loop
      vertex -13.7032 6.10105 6
      vertex -4.935 3.58549 6
      vertex -12.1353 8.81678 6
    endloop
  endfacet
  facet normal 0 0 1
    outer loop
      vertex -1.885 -5.80144 6
      vertex -7.5 -12.9904 6
      vertex -4.63525 -14.2658 6
    endloop
  endfacet
  facet normal 0 0 1
    outer loop
      vertex -4.935 3.58549 6
      vertex -13.7032 6.10105 6
      vertex -5.80144 1.885 6
    endloop
  endfacet
  facet normal 0 0 1
    outer loop
      vertex -3.58549 -4.935 6
      vertex -10.037 -11.1472 6
      vertex -7.5 -12.9904 6
    endloop
  endfacet
  facet normal -0 0 1
    outer loop
      vertex -14.6722 3.11868 6
      vertex -5.80144 1.885 6
      vertex -13.7032 6.10105 6
    endloop
  endfacet
  facet normal 0 0 1
    outer loop
      vertex -4.935 -3.58549 6
      vertex -12.1353 -8.81678 6
      vertex -10.037 -11.1472 6
    endloop
  endfacet
  facet normal 0 0 1
    outer loop
      vertex -5.80144 1.885 6
      vertex -14.6722 3.11868 6
      vertex -6.1 0 6
    endloop
  endfacet
  facet normal 0 0 1
    outer loop
      vertex -4.935 -3.58549 6
      vertex -13.7032 -6.10105 6
      vertex -12.1353 -8.81678 6
    endloop
  endfacet
  facet normal 0 0 1
    outer loop
      vertex -15 0 6
      vertex -6.1 0 6
      vertex -14.6722 3.11868 6
    endloop
  endfacet
  facet normal 0 0 1
    outer loop
      vertex -5.80144 -1.885 6
      vertex -14.6722 -3.11868 6
      vertex -13.7032 -6.10105 6
    endloop
  endfacet
  facet normal 0 0 1
    outer loop
      vertex -6.1 0 6
      vertex -15 0 6
      vertex -14.6722 -3.11868 6
    endloop
  endfacet
  facet normal -0.406737 0.913545 0
    outer loop
      vertex -4.63525 14.2658 4
      vertex -7.5 12.9904 6
      vertex -4.63525 14.2658 6
    endloop
  endfacet
  facet normal -0.406737 0.913545 0
    outer loop
      vertex -7.5 12.9904 6
      vertex -4.63525 14.2658 4
      vertex -7.5 12.9904 4
    endloop
  endfacet
  facet normal 0.994522 -0.104529 0
    outer loop
      vertex 14.6722 -3.11868 6
      vertex 15 0 4
      vertex 15 0 6
    endloop
  endfacet
  facet normal 0.994522 -0.104529 0
    outer loop
      vertex 15 0 4
      vertex 14.6722 -3.11868 6
      vertex 14.6722 -3.11868 4
    endloop
  endfacet
  facet normal -0.207912 -0.978148 0
    outer loop
      vertex -4.63525 -14.2658 4
      vertex -1.56793 -14.9178 6
      vertex -4.63525 -14.2658 6
    endloop
  endfacet
  facet normal -0.207912 -0.978148 -0
    outer loop
      vertex -1.56793 -14.9178 6
      vertex -4.63525 -14.2658 4
      vertex -1.56793 -14.9178 4
    endloop
  endfacet
  facet normal 0.207912 -0.978148 0
    outer loop
      vertex 1.56793 -14.9178 4
      vertex 4.63525 -14.2658 6
      vertex 1.56793 -14.9178 6
    endloop
  endfacet
  facet normal 0.207912 -0.978148 0
    outer loop
      vertex 4.63525 -14.2658 6
      vertex 1.56793 -14.9178 4
      vertex 4.63525 -14.2658 4
    endloop
  endfacet
  facet normal 0.743145 -0.669131 0
    outer loop
      vertex 10.037 -11.1472 6
      vertex 12.1353 -8.81678 4
      vertex 12.1353 -8.81678 6
    endloop
  endfacet
  facet normal 0.743145 -0.669131 0
    outer loop
      vertex 12.1353 -8.81678 4
      vertex 10.037 -11.1472 6
      vertex 10.037 -11.1472 4
    endloop
  endfacet
  facet normal 0.951057 -0.309017 0
    outer loop
      vertex 13.7032 -6.10105 6
      vertex 14.6722 -3.11868 4
      vertex 14.6722 -3.11868 6
    endloop
  endfacet
  facet normal 0.951057 -0.309017 0
    outer loop
      vertex 14.6722 -3.11868 4
      vertex 13.7032 -6.10105 6
      vertex 13.7032 -6.10105 4
    endloop
  endfacet
  facet normal 0.866025 -0.5 0
    outer loop
      vertex 12.1353 -8.81678 6
      vertex 13.7032 -6.10105 4
      vertex 13.7032 -6.10105 6
    endloop
  endfacet
  facet normal 0.866025 -0.5 0
    outer loop
      vertex 13.7032 -6.10105 4
      vertex 12.1353 -8.81678 6
      vertex 12.1353 -8.81678 4
    endloop
  endfacet
  facet normal -0.406737 -0.913545 0
    outer loop
      vertex -7.5 -12.9904 4
      vertex -4.63525 -14.2658 6
      vertex -7.5 -12.9904 6
    endloop
  endfacet
  facet normal -0.406737 -0.913545 -0
    outer loop
      vertex -4.63525 -14.2658 6
      vertex -7.5 -12.9904 4
      vertex -4.63525 -14.2658 4
    endloop
  endfacet
  facet normal -0.866025 -0.5 0
    outer loop
      vertex -12.1353 -8.81678 4
      vertex -13.7032 -6.10105 6
      vertex -13.7032 -6.10105 4
    endloop
  endfacet
  facet normal -0.866025 -0.5 0
    outer loop
      vertex -13.7032 -6.10105 6
      vertex -12.1353 -8.81678 4
      vertex -12.1353 -8.81678 6
    endloop
  endfacet
  facet normal -0.994522 -0.104529 0
    outer loop
      vertex -14.6722 -3.11868 4
      vertex -15 0 6
      vertex -15 0 4
    endloop
  endfacet
  facet normal -0.994522 -0.104529 0
    outer loop
      vertex -15 0 6
      vertex -14.6722 -3.11868 4
      vertex -14.6722 -3.11868 6
    endloop
  endfacet
  facet normal -0.951057 -0.309017 0
    outer loop
      vertex -13.7032 -6.10105 4
      vertex -14.6722 -3.11868 6
      vertex -14.6722 -3.11868 4
    endloop
  endfacet
  facet normal -0.951057 -0.309017 0
    outer loop
      vertex -14.6722 -3.11868 6
      vertex -13.7032 -6.10105 4
      vertex -13.7032 -6.10105 6
    endloop
  endfacet
  facet normal 0.587785 -0.809017 0
    outer loop
      vertex 7.5 -12.9904 4
      vertex 10.037 -11.1472 6
      vertex 7.5 -12.9904 6
    endloop
  endfacet
  facet normal 0.587785 -0.809017 0
    outer loop
      vertex 10.037 -11.1472 6
      vertex 7.5 -12.9904 4
      vertex 10.037 -11.1472 4
    endloop
  endfacet
  facet normal 0.406737 -0.913545 0
    outer loop
      vertex 4.63525 -14.2658 4
      vertex 7.5 -12.9904 6
      vertex 4.63525 -14.2658 6
    endloop
  endfacet
  facet normal 0.406737 -0.913545 0
    outer loop
      vertex 7.5 -12.9904 6
      vertex 4.63525 -14.2658 4
      vertex 7.5 -12.9904 4
    endloop
  endfacet
  facet normal 0 -1 0
    outer loop
      vertex -1.56793 -14.9178 4
      vertex 1.56793 -14.9178 6
      vertex -1.56793 -14.9178 6
    endloop
  endfacet
  facet normal 0 -1 -0
    outer loop
      vertex 1.56793 -14.9178 6
      vertex -1.56793 -14.9178 4
      vertex 1.56793 -14.9178 4
    endloop
  endfacet
  facet normal -0.587785 -0.809017 0
    outer loop
      vertex -10.037 -11.1472 4
      vertex -7.5 -12.9904 6
      vertex -10.037 -11.1472 6
    endloop
  endfacet
  facet normal -0.587785 -0.809017 -0
    outer loop
      vertex -7.5 -12.9904 6
      vertex -10.037 -11.1472 4
      vertex -7.5 -12.9904 4
    endloop
  endfacet
  facet normal -0.743145 -0.669131 0
    outer loop
      vertex -10.037 -11.1472 4
      vertex -12.1353 -8.81678 6
      vertex -12.1353 -8.81678 4
    endloop
  endfacet
  facet normal -0.743145 -0.669131 0
    outer loop
      vertex -12.1353 -8.81678 6
      vertex -10.037 -11.1472 4
      vertex -10.037 -11.1472 6
    endloop
  endfacet
  facet normal 0 0 -1
    outer loop
      vertex 12.5 0 4
      vertex 15 0 4
      vertex 14.6722 -3.11868 4
    endloop
  endfacet
  facet normal 0 0 -1
    outer loop
      vertex 12.2268 -2.5989 4
      vertex 14.6722 -3.11868 4
      vertex 13.7032 -6.10105 4
    endloop
  endfacet
  facet normal 0 0 -1
    outer loop
      vertex 15 0 4
      vertex 12.5 0 4
      vertex 14.6722 3.11868 4
    endloop
  endfacet
  facet normal 0 0 -1
    outer loop
      vertex 12.2268 2.5989 4
      vertex 14.6722 3.11868 4
      vertex 12.5 0 4
    endloop
  endfacet
  facet normal 0 0 -1
    outer loop
      vertex 14.6722 -3.11868 4
      vertex 12.2268 -2.5989 4
      vertex 12.5 0 4
    endloop
  endfacet
  facet normal 0 0 -1
    outer loop
      vertex 11.4193 -5.08421 4
      vertex 13.7032 -6.10105 4
      vertex 12.1353 -8.81678 4
    endloop
  endfacet
  facet normal 0 0 -1
    outer loop
      vertex 13.7032 -6.10105 4
      vertex 11.4193 -5.08421 4
      vertex 12.2268 -2.5989 4
    endloop
  endfacet
  facet normal 0 0 -1
    outer loop
      vertex 12.1353 -8.81678 4
      vertex 10.1127 -7.34731 4
      vertex 11.4193 -5.08421 4
    endloop
  endfacet
  facet normal 0 0 -1
    outer loop
      vertex 10.037 -11.1472 4
      vertex 10.1127 -7.34731 4
      vertex 12.1353 -8.81678 4
    endloop
  endfacet
  facet normal 0 0 -1
    outer loop
      vertex 10.037 -11.1472 4
      vertex 8.36413 -9.28931 4
      vertex 10.1127 -7.34731 4
    endloop
  endfacet
  facet normal 0 0 -1
    outer loop
      vertex 7.5 -12.9904 4
      vertex 8.36413 -9.28931 4
      vertex 10.037 -11.1472 4
    endloop
  endfacet
  facet normal 0 0 -1
    outer loop
      vertex 7.5 -12.9904 4
      vertex 6.25 -10.8253 4
      vertex 8.36413 -9.28931 4
    endloop
  endfacet
  facet normal 0 0 -1
    outer loop
      vertex 4.63525 -14.2658 4
      vertex 6.25 -10.8253 4
      vertex 7.5 -12.9904 4
    endloop
  endfacet
  facet normal 0 0 -1
    outer loop
      vertex 4.63525 -14.2658 4
      vertex 3.86271 -11.8882 4
      vertex 6.25 -10.8253 4
    endloop
  endfacet
  facet normal 0 0 -1
    outer loop
      vertex 1.56793 -14.9178 4
      vertex 3.86271 -11.8882 4
      vertex 4.63525 -14.2658 4
    endloop
  endfacet
  facet normal 0 0 -1
    outer loop
      vertex 1.56793 -14.9178 4
      vertex 1.30661 -12.4315 4
      vertex 3.86271 -11.8882 4
    endloop
  endfacet
  facet normal 0 0 -1
    outer loop
      vertex 1.56793 -14.9178 4
      vertex -1.30661 -12.4315 4
      vertex 1.30661 -12.4315 4
    endloop
  endfacet
  facet normal 0 0 -1
    outer loop
      vertex -1.56793 -14.9178 4
      vertex -1.30661 -12.4315 4
      vertex 1.56793 -14.9178 4
    endloop
  endfacet
  facet normal 0 0 -1
    outer loop
      vertex -1.56793 -14.9178 4
      vertex -3.86271 -11.8882 4
      vertex -1.30661 -12.4315 4
    endloop
  endfacet
  facet normal 0 0 -1
    outer loop
      vertex -4.63525 -14.2658 4
      vertex -3.86271 -11.8882 4
      vertex -1.56793 -14.9178 4
    endloop
  endfacet
  facet normal 0 0 -1
    outer loop
      vertex -4.63525 -14.2658 4
      vertex -6.25 -10.8253 4
      vertex -3.86271 -11.8882 4
    endloop
  endfacet
  facet normal 0 0 -1
    outer loop
      vertex -7.5 -12.9904 4
      vertex -6.25 -10.8253 4
      vertex -4.63525 -14.2658 4
    endloop
  endfacet
  facet normal 0 0 -1
    outer loop
      vertex -7.5 -12.9904 4
      vertex -8.36413 -9.28931 4
      vertex -6.25 -10.8253 4
    endloop
  endfacet
  facet normal 0 0 -1
    outer loop
      vertex -10.037 -11.1472 4
      vertex -8.36413 -9.28931 4
      vertex -7.5 -12.9904 4
    endloop
  endfacet
  facet normal 0 0 -1
    outer loop
      vertex -10.037 -11.1472 4
      vertex -10.1127 -7.34731 4
      vertex -8.36413 -9.28931 4
    endloop
  endfacet
  facet normal 0 0 -1
    outer loop
      vertex -12.1353 -8.81678 4
      vertex -10.1127 -7.34731 4
      vertex -10.037 -11.1472 4
    endloop
  endfacet
  facet normal -0 0 -1
    outer loop
      vertex -10.1127 -7.34731 4
      vertex -12.1353 -8.81678 4
      vertex -11.4193 -5.08421 4
    endloop
  endfacet
  facet normal 0 0 -1
    outer loop
      vertex -13.7032 -6.10105 4
      vertex -11.4193 -5.08421 4
      vertex -12.1353 -8.81678 4
    endloop
  endfacet
  facet normal -0 0 -1
    outer loop
      vertex -11.4193 -5.08421 4
      vertex -13.7032 -6.10105 4
      vertex -12.2268 -2.5989 4
    endloop
  endfacet
  facet normal 0 0 -1
    outer loop
      vertex -14.6722 -3.11868 4
      vertex -12.2268 -2.5989 4
      vertex -13.7032 -6.10105 4
    endloop
  endfacet
  facet normal -0 0 -1
    outer loop
      vertex 14.6722 3.11868 4
      vertex 12.2268 2.5989 4
      vertex 13.7032 6.10105 4
    endloop
  endfacet
  facet normal 0 0 -1
    outer loop
      vertex 11.4193 5.08421 4
      vertex 13.7032 6.10105 4
      vertex 12.2268 2.5989 4
    endloop
  endfacet
  facet normal -0 0 -1
    outer loop
      vertex 13.7032 6.10105 4
      vertex 11.4193 5.08421 4
      vertex 12.1353 8.81678 4
    endloop
  endfacet
  facet normal 0 0 -1
    outer loop
      vertex 10.1127 7.34731 4
      vertex 12.1353 8.81678 4
      vertex 11.4193 5.08421 4
    endloop
  endfacet
  facet normal 0 0 -1
    outer loop
      vertex 10.1127 7.34731 4
      vertex 10.037 11.1472 4
      vertex 12.1353 8.81678 4
    endloop
  endfacet
  facet normal 0 0 -1
    outer loop
      vertex 8.36413 9.28931 4
      vertex 10.037 11.1472 4
      vertex 10.1127 7.34731 4
    endloop
  endfacet
  facet normal 0 0 -1
    outer loop
      vertex 8.36413 9.28931 4
      vertex 7.5 12.9904 4
      vertex 10.037 11.1472 4
    endloop
  endfacet
  facet normal 0 0 -1
    outer loop
      vertex 6.25 10.8253 4
      vertex 7.5 12.9904 4
      vertex 8.36413 9.28931 4
    endloop
  endfacet
  facet normal 0 0 -1
    outer loop
      vertex 6.25 10.8253 4
      vertex 4.63525 14.2658 4
      vertex 7.5 12.9904 4
    endloop
  endfacet
  facet normal 0 0 -1
    outer loop
      vertex 3.86271 11.8882 4
      vertex 4.63525 14.2658 4
      vertex 6.25 10.8253 4
    endloop
  endfacet
  facet normal 0 0 -1
    outer loop
      vertex 3.86271 11.8882 4
      vertex 1.56793 14.9178 4
      vertex 4.63525 14.2658 4
    endloop
  endfacet
  facet normal 0 0 -1
    outer loop
      vertex 1.30661 12.4315 4
      vertex 1.56793 14.9178 4
      vertex 3.86271 11.8882 4
    endloop
  endfacet
  facet normal 0 0 -1
    outer loop
      vertex -1.30661 12.4315 4
      vertex 1.56793 14.9178 4
      vertex 1.30661 12.4315 4
    endloop
  endfacet
  facet normal 0 0 -1
    outer loop
      vertex -1.30661 12.4315 4
      vertex -1.56793 14.9178 4
      vertex 1.56793 14.9178 4
    endloop
  endfacet
  facet normal 0 0 -1
    outer loop
      vertex -3.86271 11.8882 4
      vertex -1.56793 14.9178 4
      vertex -1.30661 12.4315 4
    endloop
  endfacet
  facet normal 0 0 -1
    outer loop
      vertex -3.86271 11.8882 4
      vertex -4.63525 14.2658 4
      vertex -1.56793 14.9178 4
    endloop
  endfacet
  facet normal 0 0 -1
    outer loop
      vertex -6.25 10.8253 4
      vertex -4.63525 14.2658 4
      vertex -3.86271 11.8882 4
    endloop
  endfacet
  facet normal 0 0 -1
    outer loop
      vertex -6.25 10.8253 4
      vertex -7.5 12.9904 4
      vertex -4.63525 14.2658 4
    endloop
  endfacet
  facet normal 0 0 -1
    outer loop
      vertex -8.36413 9.28931 4
      vertex -7.5 12.9904 4
      vertex -6.25 10.8253 4
    endloop
  endfacet
  facet normal 0 0 -1
    outer loop
      vertex -8.36413 9.28931 4
      vertex -10.037 11.1472 4
      vertex -7.5 12.9904 4
    endloop
  endfacet
  facet normal 0 0 -1
    outer loop
      vertex -10.1127 7.34731 4
      vertex -10.037 11.1472 4
      vertex -8.36413 9.28931 4
    endloop
  endfacet
  facet normal 0 0 -1
    outer loop
      vertex -12.1353 8.81678 4
      vertex -10.1127 7.34731 4
      vertex -11.4193 5.08421 4
    endloop
  endfacet
  facet normal 0 0 -1
    outer loop
      vertex -10.1127 7.34731 4
      vertex -12.1353 8.81678 4
      vertex -10.037 11.1472 4
    endloop
  endfacet
  facet normal 0 0 -1
    outer loop
      vertex -13.7032 6.10105 4
      vertex -11.4193 5.08421 4
      vertex -12.2268 2.5989 4
    endloop
  endfacet
  facet normal 0 0 -1
    outer loop
      vertex -14.6722 3.11868 4
      vertex -12.2268 2.5989 4
      vertex -12.5 0 4
    endloop
  endfacet
  facet normal -0 0 -1
    outer loop
      vertex -12.2268 -2.5989 4
      vertex -14.6722 -3.11868 4
      vertex -12.5 0 4
    endloop
  endfacet
  facet normal 0 0 -1
    outer loop
      vertex -11.4193 5.08421 4
      vertex -13.7032 6.10105 4
      vertex -12.1353 8.81678 4
    endloop
  endfacet
  facet normal 0 0 -1
    outer loop
      vertex -15 0 4
      vertex -12.5 0 4
      vertex -14.6722 -3.11868 4
    endloop
  endfacet
  facet normal 0 0 -1
    outer loop
      vertex -12.2268 2.5989 4
      vertex -14.6722 3.11868 4
      vertex -13.7032 6.10105 4
    endloop
  endfacet
  facet normal 0 0 -1
    outer loop
      vertex -12.5 0 4
      vertex -15 0 4
      vertex -14.6722 3.11868 4
    endloop
  endfacet
  facet normal 0.994522 0.104529 0
    outer loop
      vertex 12.5 0 4
      vertex 12.2268 2.5989 -5
      vertex 12.2268 2.5989 4
    endloop
  endfacet
  facet normal 0.994522 0.104529 0
    outer loop
      vertex 12.2268 2.5989 -5
      vertex 12.5 0 4
      vertex 12.5 0 -5
    endloop
  endfacet
  facet normal -0.994522 0.104529 0
    outer loop
      vertex -12.5 0 -5
      vertex -12.2268 2.5989 4
      vertex -12.2268 2.5989 -5
    endloop
  endfacet
  facet normal -0.994522 0.104529 0
    outer loop
      vertex -12.2268 2.5989 4
      vertex -12.5 0 -5
      vertex -12.5 0 4
    endloop
  endfacet
  facet normal 0 1 -0
    outer loop
      vertex 1.30661 12.4315 -5
      vertex -1.30661 12.4315 4
      vertex 1.30661 12.4315 4
    endloop
  endfacet
  facet normal 0 1 0
    outer loop
      vertex -1.30661 12.4315 4
      vertex 1.30661 12.4315 -5
      vertex -1.30661 12.4315 -5
    endloop
  endfacet
  facet normal 0 -1 0
    outer loop
      vertex -1.30661 -12.4315 -5
      vertex 1.30661 -12.4315 4
      vertex -1.30661 -12.4315 4
    endloop
  endfacet
  facet normal 0 -1 -0
    outer loop
      vertex 1.30661 -12.4315 4
      vertex -1.30661 -12.4315 -5
      vertex 1.30661 -12.4315 -5
    endloop
  endfacet
  facet normal 0.587786 0.809017 -0
    outer loop
      vertex 8.36413 9.28931 -5
      vertex 6.25 10.8253 4
      vertex 8.36413 9.28931 4
    endloop
  endfacet
  facet normal 0.587786 0.809017 0
    outer loop
      vertex 6.25 10.8253 4
      vertex 8.36413 9.28931 -5
      vertex 6.25 10.8253 -5
    endloop
  endfacet
  facet normal -0.743145 0.669131 0
    outer loop
      vertex -10.1127 7.34731 -5
      vertex -8.36413 9.28931 4
      vertex -8.36413 9.28931 -5
    endloop
  endfacet
  facet normal -0.743145 0.669131 0
    outer loop
      vertex -8.36413 9.28931 4
      vertex -10.1127 7.34731 -5
      vertex -10.1127 7.34731 4
    endloop
  endfacet
  facet normal -0.866025 0.5 0
    outer loop
      vertex -11.4193 5.08421 -5
      vertex -10.1127 7.34731 4
      vertex -10.1127 7.34731 -5
    endloop
  endfacet
  facet normal -0.866025 0.5 0
    outer loop
      vertex -10.1127 7.34731 4
      vertex -11.4193 5.08421 -5
      vertex -11.4193 5.08421 4
    endloop
  endfacet
  facet normal -0.406736 0.913546 0
    outer loop
      vertex -3.86271 11.8882 -5
      vertex -6.25 10.8253 4
      vertex -3.86271 11.8882 4
    endloop
  endfacet
  facet normal -0.406736 0.913546 0
    outer loop
      vertex -6.25 10.8253 4
      vertex -3.86271 11.8882 -5
      vertex -6.25 10.8253 -5
    endloop
  endfacet
  facet normal 0.866025 -0.5 0
    outer loop
      vertex 10.1127 -7.34731 4
      vertex 11.4193 -5.08421 -5
      vertex 11.4193 -5.08421 4
    endloop
  endfacet
  facet normal 0.866025 -0.5 0
    outer loop
      vertex 11.4193 -5.08421 -5
      vertex 10.1127 -7.34731 4
      vertex 10.1127 -7.34731 -5
    endloop
  endfacet
  facet normal 0.866025 0.5 0
    outer loop
      vertex 11.4193 5.08421 4
      vertex 10.1127 7.34731 -5
      vertex 10.1127 7.34731 4
    endloop
  endfacet
  facet normal 0.866025 0.5 0
    outer loop
      vertex 10.1127 7.34731 -5
      vertex 11.4193 5.08421 4
      vertex 11.4193 5.08421 -5
    endloop
  endfacet
  facet normal 0.951057 0.309017 0
    outer loop
      vertex 12.2268 2.5989 4
      vertex 11.4193 5.08421 -5
      vertex 11.4193 5.08421 4
    endloop
  endfacet
  facet normal 0.951057 0.309017 0
    outer loop
      vertex 11.4193 5.08421 -5
      vertex 12.2268 2.5989 4
      vertex 12.2268 2.5989 -5
    endloop
  endfacet
  facet normal 0.743145 0.669131 0
    outer loop
      vertex 10.1127 7.34731 4
      vertex 8.36413 9.28931 -5
      vertex 8.36413 9.28931 4
    endloop
  endfacet
  facet normal 0.743145 0.669131 0
    outer loop
      vertex 8.36413 9.28931 -5
      vertex 10.1127 7.34731 4
      vertex 10.1127 7.34731 -5
    endloop
  endfacet
  facet normal 0.207912 0.978148 -0
    outer loop
      vertex 3.86271 11.8882 -5
      vertex 1.30661 12.4315 4
      vertex 3.86271 11.8882 4
    endloop
  endfacet
  facet normal 0.207912 0.978148 0
    outer loop
      vertex 1.30661 12.4315 4
      vertex 3.86271 11.8882 -5
      vertex 1.30661 12.4315 -5
    endloop
  endfacet
  facet normal 0.406736 0.913546 -0
    outer loop
      vertex 6.25 10.8253 -5
      vertex 3.86271 11.8882 4
      vertex 6.25 10.8253 4
    endloop
  endfacet
  facet normal 0.406736 0.913546 0
    outer loop
      vertex 3.86271 11.8882 4
      vertex 6.25 10.8253 -5
      vertex 3.86271 11.8882 -5
    endloop
  endfacet
  facet normal -0.951057 0.309017 0
    outer loop
      vertex -12.2268 2.5989 -5
      vertex -11.4193 5.08421 4
      vertex -11.4193 5.08421 -5
    endloop
  endfacet
  facet normal -0.951057 0.309017 0
    outer loop
      vertex -11.4193 5.08421 4
      vertex -12.2268 2.5989 -5
      vertex -12.2268 2.5989 4
    endloop
  endfacet
  facet normal -0.587785 0.809017 0
    outer loop
      vertex -6.25 10.8253 -5
      vertex -8.36413 9.28931 4
      vertex -6.25 10.8253 4
    endloop
  endfacet
  facet normal -0.587785 0.809017 0
    outer loop
      vertex -8.36413 9.28931 4
      vertex -6.25 10.8253 -5
      vertex -8.36413 9.28931 -5
    endloop
  endfacet
  facet normal -0.207912 0.978148 0
    outer loop
      vertex -1.30661 12.4315 -5
      vertex -3.86271 11.8882 4
      vertex -1.30661 12.4315 4
    endloop
  endfacet
  facet normal -0.207912 0.978148 0
    outer loop
      vertex -3.86271 11.8882 4
      vertex -1.30661 12.4315 -5
      vertex -3.86271 11.8882 -5
    endloop
  endfacet
  facet normal 0.994522 -0.104529 0
    outer loop
      vertex 12.2268 -2.5989 4
      vertex 12.5 0 -5
      vertex 12.5 0 4
    endloop
  endfacet
  facet normal 0.994522 -0.104529 0
    outer loop
      vertex 12.5 0 -5
      vertex 12.2268 -2.5989 4
      vertex 12.2268 -2.5989 -5
    endloop
  endfacet
  facet normal 0 0 -1
    outer loop
      vertex 6.1 0 -5
      vertex 12.5 0 -5
      vertex 12.2268 -2.5989 -5
    endloop
  endfacet
  facet normal 0 0 -1
    outer loop
      vertex 5.80144 -1.885 -5
      vertex 12.2268 -2.5989 -5
      vertex 11.4193 -5.08421 -5
    endloop
  endfacet
  facet normal 0 0 -1
    outer loop
      vertex 12.5 0 -5
      vertex 6.1 0 -5
      vertex 12.2268 2.5989 -5
    endloop
  endfacet
  facet normal 0 0 -1
    outer loop
      vertex 4.935 -3.58549 -5
      vertex 11.4193 -5.08421 -5
      vertex 10.1127 -7.34731 -5
    endloop
  endfacet
  facet normal 0 0 -1
    outer loop
      vertex 5.80144 1.885 -5
      vertex 12.2268 2.5989 -5
      vertex 6.1 0 -5
    endloop
  endfacet
  facet normal 0 0 -1
    outer loop
      vertex 4.935 -3.58549 -5
      vertex 10.1127 -7.34731 -5
      vertex 8.36413 -9.28931 -5
    endloop
  endfacet
  facet normal -0 0 -1
    outer loop
      vertex 12.2268 2.5989 -5
      vertex 5.80144 1.885 -5
      vertex 11.4193 5.08421 -5
    endloop
  endfacet
  facet normal 0 0 -1
    outer loop
      vertex 3.58549 -4.935 -5
      vertex 8.36413 -9.28931 -5
      vertex 6.25 -10.8253 -5
    endloop
  endfacet
  facet normal 0 0 -1
    outer loop
      vertex 4.935 3.58549 -5
      vertex 11.4193 5.08421 -5
      vertex 5.80144 1.885 -5
    endloop
  endfacet
  facet normal -0 0 -1
    outer loop
      vertex 11.4193 5.08421 -5
      vertex 4.935 3.58549 -5
      vertex 10.1127 7.34731 -5
    endloop
  endfacet
  facet normal 0 0 -1
    outer loop
      vertex 12.2268 -2.5989 -5
      vertex 5.80144 -1.885 -5
      vertex 6.1 0 -5
    endloop
  endfacet
  facet normal 0 0 -1
    outer loop
      vertex 11.4193 -5.08421 -5
      vertex 4.935 -3.58549 -5
      vertex 5.80144 -1.885 -5
    endloop
  endfacet
  facet normal 0 0 -1
    outer loop
      vertex 1.885 -5.80144 -5
      vertex 6.25 -10.8253 -5
      vertex 3.86271 -11.8882 -5
    endloop
  endfacet
  facet normal 0 0 -1
    outer loop
      vertex 8.36413 -9.28931 -5
      vertex 3.58549 -4.935 -5
      vertex 4.935 -3.58549 -5
    endloop
  endfacet
  facet normal 0 0 -1
    outer loop
      vertex 6.25 -10.8253 -5
      vertex 1.885 -5.80144 -5
      vertex 3.58549 -4.935 -5
    endloop
  endfacet
  facet normal 0 0 -1
    outer loop
      vertex 1.30661 -12.4315 -5
      vertex 1.885 -5.80144 -5
      vertex 3.86271 -11.8882 -5
    endloop
  endfacet
  facet normal 0 0 -1
    outer loop
      vertex 1.30661 -12.4315 -5
      vertex 0 -6.1 -5
      vertex 1.885 -5.80144 -5
    endloop
  endfacet
  facet normal 0 0 -1
    outer loop
      vertex -1.30661 -12.4315 -5
      vertex 0 -6.1 -5
      vertex 1.30661 -12.4315 -5
    endloop
  endfacet
  facet normal 0 0 -1
    outer loop
      vertex -1.30661 -12.4315 -5
      vertex -1.885 -5.80144 -5
      vertex 0 -6.1 -5
    endloop
  endfacet
  facet normal 0 0 -1
    outer loop
      vertex -3.86271 -11.8882 -5
      vertex -1.885 -5.80144 -5
      vertex -1.30661 -12.4315 -5
    endloop
  endfacet
  facet normal 0 0 -1
    outer loop
      vertex -6.25 -10.8253 -5
      vertex -1.885 -5.80144 -5
      vertex -3.86271 -11.8882 -5
    endloop
  endfacet
  facet normal -0 0 -1
    outer loop
      vertex -1.885 -5.80144 -5
      vertex -6.25 -10.8253 -5
      vertex -3.58549 -4.935 -5
    endloop
  endfacet
  facet normal 0 0 -1
    outer loop
      vertex -8.36413 -9.28931 -5
      vertex -3.58549 -4.935 -5
      vertex -6.25 -10.8253 -5
    endloop
  endfacet
  facet normal -0 0 -1
    outer loop
      vertex -3.58549 -4.935 -5
      vertex -8.36413 -9.28931 -5
      vertex -4.935 -3.58549 -5
    endloop
  endfacet
  facet normal 0 0 -1
    outer loop
      vertex -10.1127 -7.34731 -5
      vertex -4.935 -3.58549 -5
      vertex -8.36413 -9.28931 -5
    endloop
  endfacet
  facet normal 0 0 -1
    outer loop
      vertex -11.4193 -5.08421 -5
      vertex -4.935 -3.58549 -5
      vertex -10.1127 -7.34731 -5
    endloop
  endfacet
  facet normal -0 0 -1
    outer loop
      vertex -4.935 -3.58549 -5
      vertex -11.4193 -5.08421 -5
      vertex -5.80144 -1.885 -5
    endloop
  endfacet
  facet normal 0 0 -1
    outer loop
      vertex -6.1 0 -5
      vertex -8.36413 9.28931 -5
      vertex -6.25 10.8253 -5
    endloop
  endfacet
  facet normal 0 0 -1
    outer loop
      vertex -12.2268 -2.5989 -5
      vertex -5.80144 -1.885 -5
      vertex -11.4193 -5.08421 -5
    endloop
  endfacet
  facet normal 0 0 -1
    outer loop
      vertex -6.1 0 -5
      vertex -10.1127 7.34731 -5
      vertex -8.36413 9.28931 -5
    endloop
  endfacet
  facet normal -0 0 -1
    outer loop
      vertex -5.80144 -1.885 -5
      vertex -12.2268 -2.5989 -5
      vertex -6.1 0 -5
    endloop
  endfacet
  facet normal 0 0 -1
    outer loop
      vertex -6.1 0 -5
      vertex -11.4193 5.08421 -5
      vertex -10.1127 7.34731 -5
    endloop
  endfacet
  facet normal 0 0 -1
    outer loop
      vertex -12.5 0 -5
      vertex -6.1 0 -5
      vertex -12.2268 -2.5989 -5
    endloop
  endfacet
  facet normal 0 0 -1
    outer loop
      vertex -6.1 0 -5
      vertex -12.2268 2.5989 -5
      vertex -11.4193 5.08421 -5
    endloop
  endfacet
  facet normal 0 0 -1
    outer loop
      vertex -6.1 0 -5
      vertex -12.5 0 -5
      vertex -12.2268 2.5989 -5
    endloop
  endfacet
  facet normal -0 0 -1
    outer loop
      vertex 10.1127 7.34731 -5
      vertex 4.935 3.58549 -5
      vertex 8.36413 9.28931 -5
    endloop
  endfacet
  facet normal 0 0 -1
    outer loop
      vertex 3.58549 4.935 -5
      vertex 8.36413 9.28931 -5
      vertex 4.935 3.58549 -5
    endloop
  endfacet
  facet normal -0 0 -1
    outer loop
      vertex 8.36413 9.28931 -5
      vertex 3.58549 4.935 -5
      vertex 6.25 10.8253 -5
    endloop
  endfacet
  facet normal 0 0 -1
    outer loop
      vertex 1.885 5.80144 -5
      vertex 6.25 10.8253 -5
      vertex 3.58549 4.935 -5
    endloop
  endfacet
  facet normal -0 0 -1
    outer loop
      vertex 6.25 10.8253 -5
      vertex 1.885 5.80144 -5
      vertex 3.86271 11.8882 -5
    endloop
  endfacet
  facet normal 0 0 -1
    outer loop
      vertex 1.885 5.80144 -5
      vertex 1.30661 12.4315 -5
      vertex 3.86271 11.8882 -5
    endloop
  endfacet
  facet normal 0 0 -1
    outer loop
      vertex 0 6.1 -5
      vertex 1.30661 12.4315 -5
      vertex 1.885 5.80144 -5
    endloop
  endfacet
  facet normal 0 0 -1
    outer loop
      vertex 0 6.1 -5
      vertex -1.30661 12.4315 -5
      vertex 1.30661 12.4315 -5
    endloop
  endfacet
  facet normal 0 0 -1
    outer loop
      vertex -1.885 5.80144 -5
      vertex -1.30661 12.4315 -5
      vertex 0 6.1 -5
    endloop
  endfacet
  facet normal 0 0 -1
    outer loop
      vertex -6.25 10.8253 -5
      vertex -1.885 5.80144 -5
      vertex -3.58549 4.935 -5
    endloop
  endfacet
  facet normal 0 0 -1
    outer loop
      vertex -1.885 5.80144 -5
      vertex -3.86271 11.8882 -5
      vertex -1.30661 12.4315 -5
    endloop
  endfacet
  facet normal 0 0 -1
    outer loop
      vertex -6.25 10.8253 -5
      vertex -3.58549 4.935 -5
      vertex -4.935 3.58549 -5
    endloop
  endfacet
  facet normal 0 0 -1
    outer loop
      vertex -6.25 10.8253 -5
      vertex -4.935 3.58549 -5
      vertex -5.80144 1.885 -5
    endloop
  endfacet
  facet normal 0 0 -1
    outer loop
      vertex -1.885 5.80144 -5
      vertex -6.25 10.8253 -5
      vertex -3.86271 11.8882 -5
    endloop
  endfacet
  facet normal 0 0 -1
    outer loop
      vertex -6.25 10.8253 -5
      vertex -5.80144 1.885 -5
      vertex -6.1 0 -5
    endloop
  endfacet
  facet normal 0.743145 -0.669131 0
    outer loop
      vertex 8.36413 -9.28931 4
      vertex 10.1127 -7.34731 -5
      vertex 10.1127 -7.34731 4
    endloop
  endfacet
  facet normal 0.743145 -0.669131 0
    outer loop
      vertex 10.1127 -7.34731 -5
      vertex 8.36413 -9.28931 4
      vertex 8.36413 -9.28931 -5
    endloop
  endfacet
  facet normal 0.951057 -0.309017 0
    outer loop
      vertex 11.4193 -5.08421 4
      vertex 12.2268 -2.5989 -5
      vertex 12.2268 -2.5989 4
    endloop
  endfacet
  facet normal 0.951057 -0.309017 0
    outer loop
      vertex 12.2268 -2.5989 -5
      vertex 11.4193 -5.08421 4
      vertex 11.4193 -5.08421 -5
    endloop
  endfacet
  facet normal -0.587786 -0.809017 0
    outer loop
      vertex -8.36413 -9.28931 -5
      vertex -6.25 -10.8253 4
      vertex -8.36413 -9.28931 4
    endloop
  endfacet
  facet normal -0.587786 -0.809017 -0
    outer loop
      vertex -6.25 -10.8253 4
      vertex -8.36413 -9.28931 -5
      vertex -6.25 -10.8253 -5
    endloop
  endfacet
  facet normal -0.866025 -0.5 0
    outer loop
      vertex -10.1127 -7.34731 -5
      vertex -11.4193 -5.08421 4
      vertex -11.4193 -5.08421 -5
    endloop
  endfacet
  facet normal -0.866025 -0.5 0
    outer loop
      vertex -11.4193 -5.08421 4
      vertex -10.1127 -7.34731 -5
      vertex -10.1127 -7.34731 4
    endloop
  endfacet
  facet normal 0.207912 -0.978148 0
    outer loop
      vertex 1.30661 -12.4315 -5
      vertex 3.86271 -11.8882 4
      vertex 1.30661 -12.4315 4
    endloop
  endfacet
  facet normal 0.207912 -0.978148 0
    outer loop
      vertex 3.86271 -11.8882 4
      vertex 1.30661 -12.4315 -5
      vertex 3.86271 -11.8882 -5
    endloop
  endfacet
  facet normal 0.587786 -0.809017 0
    outer loop
      vertex 6.25 -10.8253 -5
      vertex 8.36413 -9.28931 4
      vertex 6.25 -10.8253 4
    endloop
  endfacet
  facet normal 0.587786 -0.809017 0
    outer loop
      vertex 8.36413 -9.28931 4
      vertex 6.25 -10.8253 -5
      vertex 8.36413 -9.28931 -5
    endloop
  endfacet
  facet normal -0.406736 -0.913546 0
    outer loop
      vertex -6.25 -10.8253 -5
      vertex -3.86271 -11.8882 4
      vertex -6.25 -10.8253 4
    endloop
  endfacet
  facet normal -0.406736 -0.913546 -0
    outer loop
      vertex -3.86271 -11.8882 4
      vertex -6.25 -10.8253 -5
      vertex -3.86271 -11.8882 -5
    endloop
  endfacet
  facet normal -0.743145 -0.669131 0
    outer loop
      vertex -8.36413 -9.28931 -5
      vertex -10.1127 -7.34731 4
      vertex -10.1127 -7.34731 -5
    endloop
  endfacet
  facet normal -0.743145 -0.669131 0
    outer loop
      vertex -10.1127 -7.34731 4
      vertex -8.36413 -9.28931 -5
      vertex -8.36413 -9.28931 4
    endloop
  endfacet
  facet normal -0.951057 -0.309017 0
    outer loop
      vertex -11.4193 -5.08421 -5
      vertex -12.2268 -2.5989 4
      vertex -12.2268 -2.5989 -5
    endloop
  endfacet
  facet normal -0.951057 -0.309017 0
    outer loop
      vertex -12.2268 -2.5989 4
      vertex -11.4193 -5.08421 -5
      vertex -11.4193 -5.08421 4
    endloop
  endfacet
  facet normal -0.994522 -0.104529 0
    outer loop
      vertex -12.2268 -2.5989 -5
      vertex -12.5 0 4
      vertex -12.5 0 -5
    endloop
  endfacet
  facet normal -0.994522 -0.104529 0
    outer loop
      vertex -12.5 0 4
      vertex -12.2268 -2.5989 -5
      vertex -12.2268 -2.5989 4
    endloop
  endfacet
  facet normal 0.406736 -0.913546 0
    outer loop
      vertex 3.86271 -11.8882 -5
      vertex 6.25 -10.8253 4
      vertex 3.86271 -11.8882 4
    endloop
  endfacet
  facet normal 0.406736 -0.913546 0
    outer loop
      vertex 6.25 -10.8253 4
      vertex 3.86271 -11.8882 -5
      vertex 6.25 -10.8253 -5
    endloop
  endfacet
  facet normal -0.207912 -0.978148 0
    outer loop
      vertex -3.86271 -11.8882 -5
      vertex -1.30661 -12.4315 4
      vertex -3.86271 -11.8882 4
    endloop
  endfacet
  facet normal -0.207912 -0.978148 -0
    outer loop
      vertex -1.30661 -12.4315 4
      vertex -3.86271 -11.8882 -5
      vertex -1.30661 -12.4315 -5
    endloop
  endfacet
  facet normal -0.987688 -0.156435 0
    outer loop
      vertex 6.1 0 -5
      vertex 5.80144 1.885 6
      vertex 5.80144 1.885 -5
    endloop
  endfacet
  facet normal -0.987688 -0.156435 0
    outer loop
      vertex 5.80144 1.885 6
      vertex 6.1 0 -5
      vertex 6.1 0 6
    endloop
  endfacet
  facet normal 0.987688 -0.156435 0
    outer loop
      vertex -6.1 0 6
      vertex -5.80144 1.885 -5
      vertex -5.80144 1.885 6
    endloop
  endfacet
  facet normal 0.987688 -0.156435 0
    outer loop
      vertex -5.80144 1.885 -5
      vertex -6.1 0 6
      vertex -6.1 0 -5
    endloop
  endfacet
  facet normal -0.156435 -0.987688 0
    outer loop
      vertex 0 6.1 -5
      vertex 1.885 5.80144 6
      vertex 0 6.1 6
    endloop
  endfacet
  facet normal -0.156435 -0.987688 -0
    outer loop
      vertex 1.885 5.80144 6
      vertex 0 6.1 -5
      vertex 1.885 5.80144 -5
    endloop
  endfacet
  facet normal 0.156435 0.987688 -0
    outer loop
      vertex 0 -6.1 -5
      vertex -1.885 -5.80144 6
      vertex 0 -6.1 6
    endloop
  endfacet
  facet normal 0.156435 0.987688 0
    outer loop
      vertex -1.885 -5.80144 6
      vertex 0 -6.1 -5
      vertex -1.885 -5.80144 -5
    endloop
  endfacet
  facet normal -0.707107 -0.707107 0
    outer loop
      vertex 4.935 3.58549 -5
      vertex 3.58549 4.935 6
      vertex 3.58549 4.935 -5
    endloop
  endfacet
  facet normal -0.707107 -0.707107 0
    outer loop
      vertex 3.58549 4.935 6
      vertex 4.935 3.58549 -5
      vertex 4.935 3.58549 6
    endloop
  endfacet
  facet normal -0.891007 -0.45399 0
    outer loop
      vertex 5.80144 1.885 -5
      vertex 4.935 3.58549 6
      vertex 4.935 3.58549 -5
    endloop
  endfacet
  facet normal -0.891007 -0.45399 0
    outer loop
      vertex 4.935 3.58549 6
      vertex 5.80144 1.885 -5
      vertex 5.80144 1.885 6
    endloop
  endfacet
  facet normal -0.45399 -0.891007 0
    outer loop
      vertex 1.885 5.80144 -5
      vertex 3.58549 4.935 6
      vertex 1.885 5.80144 6
    endloop
  endfacet
  facet normal -0.45399 -0.891007 -0
    outer loop
      vertex 3.58549 4.935 6
      vertex 1.885 5.80144 -5
      vertex 3.58549 4.935 -5
    endloop
  endfacet
  facet normal 0.45399 -0.891007 0
    outer loop
      vertex -3.58549 4.935 -5
      vertex -1.885 5.80144 6
      vertex -3.58549 4.935 6
    endloop
  endfacet
  facet normal 0.45399 -0.891007 0
    outer loop
      vertex -1.885 5.80144 6
      vertex -3.58549 4.935 -5
      vertex -1.885 5.80144 -5
    endloop
  endfacet
  facet normal 0.707107 -0.707107 0
    outer loop
      vertex -4.935 3.58549 6
      vertex -3.58549 4.935 -5
      vertex -3.58549 4.935 6
    endloop
  endfacet
  facet normal 0.707107 -0.707107 0
    outer loop
      vertex -3.58549 4.935 -5
      vertex -4.935 3.58549 6
      vertex -4.935 3.58549 -5
    endloop
  endfacet
  facet normal 0.156435 -0.987688 0
    outer loop
      vertex -1.885 5.80144 -5
      vertex 0 6.1 6
      vertex -1.885 5.80144 6
    endloop
  endfacet
  facet normal 0.156435 -0.987688 0
    outer loop
      vertex 0 6.1 6
      vertex -1.885 5.80144 -5
      vertex 0 6.1 -5
    endloop
  endfacet
  facet normal -0.891007 0.45399 0
    outer loop
      vertex 4.935 -3.58549 -5
      vertex 5.80144 -1.885 6
      vertex 5.80144 -1.885 -5
    endloop
  endfacet
  facet normal -0.891007 0.45399 0
    outer loop
      vertex 5.80144 -1.885 6
      vertex 4.935 -3.58549 -5
      vertex 4.935 -3.58549 6
    endloop
  endfacet
  facet normal 0.707107 0.707107 0
    outer loop
      vertex -3.58549 -4.935 6
      vertex -4.935 -3.58549 -5
      vertex -4.935 -3.58549 6
    endloop
  endfacet
  facet normal 0.707107 0.707107 0
    outer loop
      vertex -4.935 -3.58549 -5
      vertex -3.58549 -4.935 6
      vertex -3.58549 -4.935 -5
    endloop
  endfacet
  facet normal 0.987688 0.156435 0
    outer loop
      vertex -5.80144 -1.885 6
      vertex -6.1 0 -5
      vertex -6.1 0 6
    endloop
  endfacet
  facet normal 0.987688 0.156435 0
    outer loop
      vertex -6.1 0 -5
      vertex -5.80144 -1.885 6
      vertex -5.80144 -1.885 -5
    endloop
  endfacet
  facet normal 0.891007 -0.45399 0
    outer loop
      vertex -5.80144 1.885 6
      vertex -4.935 3.58549 -5
      vertex -4.935 3.58549 6
    endloop
  endfacet
  facet normal 0.891007 -0.45399 0
    outer loop
      vertex -4.935 3.58549 -5
      vertex -5.80144 1.885 6
      vertex -5.80144 1.885 -5
    endloop
  endfacet
  facet normal -0.987688 0.156435 0
    outer loop
      vertex 5.80144 -1.885 -5
      vertex 6.1 0 6
      vertex 6.1 0 -5
    endloop
  endfacet
  facet normal -0.987688 0.156435 0
    outer loop
      vertex 6.1 0 6
      vertex 5.80144 -1.885 -5
      vertex 5.80144 -1.885 6
    endloop
  endfacet
  facet normal -0.156435 0.987688 0
    outer loop
      vertex 1.885 -5.80144 -5
      vertex 0 -6.1 6
      vertex 1.885 -5.80144 6
    endloop
  endfacet
  facet normal -0.156435 0.987688 0
    outer loop
      vertex 0 -6.1 6
      vertex 1.885 -5.80144 -5
      vertex 0 -6.1 -5
    endloop
  endfacet
  facet normal -0.707107 0.707107 0
    outer loop
      vertex 3.58549 -4.935 -5
      vertex 4.935 -3.58549 6
      vertex 4.935 -3.58549 -5
    endloop
  endfacet
  facet normal -0.707107 0.707107 0
    outer loop
      vertex 4.935 -3.58549 6
      vertex 3.58549 -4.935 -5
      vertex 3.58549 -4.935 6
    endloop
  endfacet
  facet normal 0.45399 0.891007 -0
    outer loop
      vertex -1.885 -5.80144 -5
      vertex -3.58549 -4.935 6
      vertex -1.885 -5.80144 6
    endloop
  endfacet
  facet normal 0.45399 0.891007 0
    outer loop
      vertex -3.58549 -4.935 6
      vertex -1.885 -5.80144 -5
      vertex -3.58549 -4.935 -5
    endloop
  endfacet
  facet normal 0.891007 0.45399 0
    outer loop
      vertex -4.935 -3.58549 6
      vertex -5.80144 -1.885 -5
      vertex -5.80144 -1.885 6
    endloop
  endfacet
  facet normal 0.891007 0.45399 0
    outer loop
      vertex -5.80144 -1.885 -5
      vertex -4.935 -3.58549 6
      vertex -4.935 -3.58549 -5
    endloop
  endfacet
  facet normal -0.45399 0.891007 0
    outer loop
      vertex 3.58549 -4.935 -5
      vertex 1.885 -5.80144 6
      vertex 3.58549 -4.935 6
    endloop
  endfacet
  facet normal -0.45399 0.891007 0
    outer loop
      vertex 1.885 -5.80144 6
      vertex 3.58549 -4.935 -5
      vertex 1.885 -5.80144 -5
    endloop
  endfacet
endsolid OpenSCAD_Model
