solid OpenSCAD_Model
  facet normal 0.866025 0.5 0
    outer loop
      vertex 19.1845 8.54147 6
      vertex 16.9894 12.3435 -6
      vertex 16.9894 12.3435 6
    endloop
  endfacet
  facet normal 0.866025 0.5 0
    outer loop
      vertex 16.9894 12.3435 -6
      vertex 19.1845 8.54147 6
      vertex 19.1845 8.54147 -6
    endloop
  endfacet
  facet normal 0.951056 0.309017 0
    outer loop
      vertex 20.5411 4.36615 6
      vertex 19.1845 8.54147 -6
      vertex 19.1845 8.54147 6
    endloop
  endfacet
  facet normal 0.951056 0.309017 0
    outer loop
      vertex 19.1845 8.54147 -6
      vertex 20.5411 4.36615 6
      vertex 20.5411 4.36615 -6
    endloop
  endfacet
  facet normal 0.207912 0.978148 -0
    outer loop
      vertex 6.48936 19.9722 -6
      vertex 2.1951 20.885 6
      vertex 6.48936 19.9722 6
    endloop
  endfacet
  facet normal 0.207912 0.978148 0
    outer loop
      vertex 2.1951 20.885 6
      vertex 6.48936 19.9722 -6
      vertex 2.1951 20.885 -6
    endloop
  endfacet
  facet normal 0.406737 0.913545 -0
    outer loop
      vertex 10.5 18.1865 -6
      vertex 6.48936 19.9722 6
      vertex 10.5 18.1865 6
    endloop
  endfacet
  facet normal 0.406737 0.913545 0
    outer loop
      vertex 6.48936 19.9722 6
      vertex 10.5 18.1865 -6
      vertex 6.48936 19.9722 -6
    endloop
  endfacet
  facet normal -0.406737 0.913545 0
    outer loop
      vertex -6.48936 19.9722 -6
      vertex -10.5 18.1865 6
      vertex -6.48936 19.9722 6
    endloop
  endfacet
  facet normal -0.406737 0.913545 0
    outer loop
      vertex -10.5 18.1865 6
      vertex -6.48936 19.9722 -6
      vertex -10.5 18.1865 -6
    endloop
  endfacet
  facet normal -0.866025 0.5 0
    outer loop
      vertex -19.1845 8.54147 -6
      vertex -16.9894 12.3435 6
      vertex -16.9894 12.3435 -6
    endloop
  endfacet
  facet normal -0.866025 0.5 0
    outer loop
      vertex -16.9894 12.3435 6
      vertex -19.1845 8.54147 -6
      vertex -19.1845 8.54147 6
    endloop
  endfacet
  facet normal -0.587785 0.809017 0
    outer loop
      vertex -10.5 18.1865 -6
      vertex -14.0517 15.606 6
      vertex -10.5 18.1865 6
    endloop
  endfacet
  facet normal -0.587785 0.809017 0
    outer loop
      vertex -14.0517 15.606 6
      vertex -10.5 18.1865 -6
      vertex -14.0517 15.606 -6
    endloop
  endfacet
  facet normal 0.994522 -0.104528 0
    outer loop
      vertex 20.5411 -4.36615 6
      vertex 21 0 -6
      vertex 21 0 6
    endloop
  endfacet
  facet normal 0.994522 -0.104528 0
    outer loop
      vertex 21 0 -6
      vertex 20.5411 -4.36615 6
      vertex 20.5411 -4.36615 -6
    endloop
  endfacet
  facet normal 0.207912 -0.978148 0
    outer loop
      vertex 2.1951 -20.885 -6
      vertex 6.48936 -19.9722 6
      vertex 2.1951 -20.885 6
    endloop
  endfacet
  facet normal 0.207912 -0.978148 0
    outer loop
      vertex 6.48936 -19.9722 6
      vertex 2.1951 -20.885 -6
      vertex 6.48936 -19.9722 -6
    endloop
  endfacet
  facet normal 0.743145 0.669131 0
    outer loop
      vertex 16.9894 12.3435 6
      vertex 14.0517 15.606 -6
      vertex 14.0517 15.606 6
    endloop
  endfacet
  facet normal 0.743145 0.669131 0
    outer loop
      vertex 14.0517 15.606 -6
      vertex 16.9894 12.3435 6
      vertex 16.9894 12.3435 -6
    endloop
  endfacet
  facet normal 0 1 -0
    outer loop
      vertex 2.1951 20.885 -6
      vertex -2.1951 20.885 6
      vertex 2.1951 20.885 6
    endloop
  endfacet
  facet normal 0 1 0
    outer loop
      vertex -2.1951 20.885 6
      vertex 2.1951 20.885 -6
      vertex -2.1951 20.885 -6
    endloop
  endfacet
  facet normal 0.587785 0.809017 -0
    outer loop
      vertex 14.0517 15.606 -6
      vertex 10.5 18.1865 6
      vertex 14.0517 15.606 6
    endloop
  endfacet
  facet normal 0.587785 0.809017 0
    outer loop
      vertex 10.5 18.1865 6
      vertex 14.0517 15.606 -6
      vertex 10.5 18.1865 -6
    endloop
  endfacet
  facet normal -0.994522 0.104528 0
    outer loop
      vertex -21 0 -6
      vertex -20.5411 4.36615 6
      vertex -20.5411 4.36615 -6
    endloop
  endfacet
  facet normal -0.994522 0.104528 0
    outer loop
      vertex -20.5411 4.36615 6
      vertex -21 0 -6
      vertex -21 0 6
    endloop
  endfacet
  facet normal -0.743145 0.669131 0
    outer loop
      vertex -16.9894 12.3435 -6
      vertex -14.0517 15.606 6
      vertex -14.0517 15.606 -6
    endloop
  endfacet
  facet normal -0.743145 0.669131 0
    outer loop
      vertex -14.0517 15.606 6
      vertex -16.9894 12.3435 -6
      vertex -16.9894 12.3435 6
    endloop
  endfacet
  facet normal -0.207912 0.978148 0
    outer loop
      vertex -2.1951 20.885 -6
      vertex -6.48936 19.9722 6
      vertex -2.1951 20.885 6
    endloop
  endfacet
  facet normal -0.207912 0.978148 0
    outer loop
      vertex -6.48936 19.9722 6
      vertex -2.1951 20.885 -6
      vertex -6.48936 19.9722 -6
    endloop
  endfacet
  facet normal 0.994522 0.104528 0
    outer loop
      vertex 21 0 6
      vertex 20.5411 4.36615 -6
      vertex 20.5411 4.36615 6
    endloop
  endfacet
  facet normal 0.994522 0.104528 0
    outer loop
      vertex 20.5411 4.36615 -6
      vertex 21 0 6
      vertex 21 0 -6
    endloop
  endfacet
  facet normal 0.951056 -0.309017 0
    outer loop
      vertex 19.1845 -8.54147 6
      vertex 20.5411 -4.36615 -6
      vertex 20.5411 -4.36615 6
    endloop
  endfacet
  facet normal 0.951056 -0.309017 0
    outer loop
      vertex 20.5411 -4.36615 -6
      vertex 19.1845 -8.54147 6
      vertex 19.1845 -8.54147 -6
    endloop
  endfacet
  facet normal -0.587785 -0.809017 0
    outer loop
      vertex -14.0517 -15.606 -6
      vertex -10.5 -18.1865 6
      vertex -14.0517 -15.606 6
    endloop
  endfacet
  facet normal -0.587785 -0.809017 -0
    outer loop
      vertex -10.5 -18.1865 6
      vertex -14.0517 -15.606 -6
      vertex -10.5 -18.1865 -6
    endloop
  endfacet
  facet normal -0.866025 -0.5 0
    outer loop
      vertex -16.9894 -12.3435 -6
      vertex -19.1845 -8.54147 6
      vertex -19.1845 -8.54147 -6
    endloop
  endfacet
  facet normal -0.866025 -0.5 0
    outer loop
      vertex -19.1845 -8.54147 6
      vertex -16.9894 -12.3435 -6
      vertex -16.9894 -12.3435 6
    endloop
  endfacet
  facet normal 0.587785 -0.809017 0
    outer loop
      vertex 10.5 -18.1865 -6
      vertex 14.0517 -15.606 6
      vertex 10.5 -18.1865 6
    endloop
  endfacet
  facet normal 0.587785 -0.809017 0
    outer loop
      vertex 14.0517 -15.606 6
      vertex 10.5 -18.1865 -6
      vertex 14.0517 -15.606 -6
    endloop
  endfacet
  facet normal 0 0 1
    outer loop
      vertex 19 0 6
      vertex 21 0 6
      vertex 20.5411 4.36615 6
    endloop
  endfacet
  facet normal 0 0 1
    outer loop
      vertex 18.5848 3.95032 6
      vertex 20.5411 4.36615 6
      vertex 19.1845 8.54147 6
    endloop
  endfacet
  facet normal 0 0 1
    outer loop
      vertex 21 0 6
      vertex 19 0 6
      vertex 20.5411 -4.36615 6
    endloop
  endfacet
  facet normal -0 0 1
    outer loop
      vertex 18.5848 -3.95032 6
      vertex 20.5411 -4.36615 6
      vertex 19 0 6
    endloop
  endfacet
  facet normal 0 0 1
    outer loop
      vertex 20.5411 4.36615 6
      vertex 18.5848 3.95032 6
      vertex 19 0 6
    endloop
  endfacet
  facet normal 0 0 1
    outer loop
      vertex 19.1845 8.54147 6
      vertex 17.3574 7.728 6
      vertex 18.5848 3.95032 6
    endloop
  endfacet
  facet normal 0 0 1
    outer loop
      vertex 16.9894 12.3435 6
      vertex 17.3574 7.728 6
      vertex 19.1845 8.54147 6
    endloop
  endfacet
  facet normal 0 0 1
    outer loop
      vertex 16.9894 12.3435 6
      vertex 15.3713 11.1679 6
      vertex 17.3574 7.728 6
    endloop
  endfacet
  facet normal 0 0 1
    outer loop
      vertex 14.0517 15.606 6
      vertex 15.3713 11.1679 6
      vertex 16.9894 12.3435 6
    endloop
  endfacet
  facet normal 0 0 1
    outer loop
      vertex 14.0517 15.606 6
      vertex 12.7135 14.1198 6
      vertex 15.3713 11.1679 6
    endloop
  endfacet
  facet normal 0 0 1
    outer loop
      vertex 10.5 18.1865 6
      vertex 12.7135 14.1198 6
      vertex 14.0517 15.606 6
    endloop
  endfacet
  facet normal 0 0 1
    outer loop
      vertex 10.5 18.1865 6
      vertex 9.5 16.4545 6
      vertex 12.7135 14.1198 6
    endloop
  endfacet
  facet normal 0 0 1
    outer loop
      vertex 6.48936 19.9722 6
      vertex 9.5 16.4545 6
      vertex 10.5 18.1865 6
    endloop
  endfacet
  facet normal 0 0 1
    outer loop
      vertex 6.48936 19.9722 6
      vertex 5.87132 18.0701 6
      vertex 9.5 16.4545 6
    endloop
  endfacet
  facet normal 0 0 1
    outer loop
      vertex 2.1951 20.885 6
      vertex 5.87132 18.0701 6
      vertex 6.48936 19.9722 6
    endloop
  endfacet
  facet normal 0 0 1
    outer loop
      vertex 2.1951 20.885 6
      vertex 1.98604 18.8959 6
      vertex 5.87132 18.0701 6
    endloop
  endfacet
  facet normal 0 0 1
    outer loop
      vertex 2.1951 20.885 6
      vertex -1.98604 18.8959 6
      vertex 1.98604 18.8959 6
    endloop
  endfacet
  facet normal -0 0 1
    outer loop
      vertex -2.1951 20.885 6
      vertex -1.98604 18.8959 6
      vertex 2.1951 20.885 6
    endloop
  endfacet
  facet normal 0 0 1
    outer loop
      vertex -2.1951 20.885 6
      vertex -5.87132 18.0701 6
      vertex -1.98604 18.8959 6
    endloop
  endfacet
  facet normal -0 0 1
    outer loop
      vertex -6.48936 19.9722 6
      vertex -5.87132 18.0701 6
      vertex -2.1951 20.885 6
    endloop
  endfacet
  facet normal 0 0 1
    outer loop
      vertex -6.48936 19.9722 6
      vertex -9.5 16.4545 6
      vertex -5.87132 18.0701 6
    endloop
  endfacet
  facet normal -0 0 1
    outer loop
      vertex -10.5 18.1865 6
      vertex -9.5 16.4545 6
      vertex -6.48936 19.9722 6
    endloop
  endfacet
  facet normal 0 0 1
    outer loop
      vertex -10.5 18.1865 6
      vertex -12.7135 14.1198 6
      vertex -9.5 16.4545 6
    endloop
  endfacet
  facet normal -0 0 1
    outer loop
      vertex -14.0517 15.606 6
      vertex -12.7135 14.1198 6
      vertex -10.5 18.1865 6
    endloop
  endfacet
  facet normal 0 0 1
    outer loop
      vertex -14.0517 15.606 6
      vertex -15.3713 11.1679 6
      vertex -12.7135 14.1198 6
    endloop
  endfacet
  facet normal -0 0 1
    outer loop
      vertex -16.9894 12.3435 6
      vertex -15.3713 11.1679 6
      vertex -14.0517 15.606 6
    endloop
  endfacet
  facet normal 0 0 1
    outer loop
      vertex -16.9894 12.3435 6
      vertex -17.3574 7.728 6
      vertex -15.3713 11.1679 6
    endloop
  endfacet
  facet normal -0 0 1
    outer loop
      vertex -19.1845 8.54147 6
      vertex -17.3574 7.728 6
      vertex -16.9894 12.3435 6
    endloop
  endfacet
  facet normal -0 0 1
    outer loop
      vertex -20.5411 4.36615 6
      vertex -18.5848 3.95032 6
      vertex -19.1845 8.54147 6
    endloop
  endfacet
  facet normal 0 0 1
    outer loop
      vertex -17.3574 7.728 6
      vertex -19.1845 8.54147 6
      vertex -18.5848 3.95032 6
    endloop
  endfacet
  facet normal 0 0 1
    outer loop
      vertex 20.5411 -4.36615 6
      vertex 18.5848 -3.95032 6
      vertex 19.1845 -8.54147 6
    endloop
  endfacet
  facet normal -0 0 1
    outer loop
      vertex 17.3574 -7.728 6
      vertex 19.1845 -8.54147 6
      vertex 18.5848 -3.95032 6
    endloop
  endfacet
  facet normal 0 0 1
    outer loop
      vertex 17.3574 -7.728 6
      vertex 16.9894 -12.3435 6
      vertex 19.1845 -8.54147 6
    endloop
  endfacet
  facet normal -0 0 1
    outer loop
      vertex 15.3713 -11.1679 6
      vertex 16.9894 -12.3435 6
      vertex 17.3574 -7.728 6
    endloop
  endfacet
  facet normal 0 0 1
    outer loop
      vertex 15.3713 -11.1679 6
      vertex 14.0517 -15.606 6
      vertex 16.9894 -12.3435 6
    endloop
  endfacet
  facet normal -0 0 1
    outer loop
      vertex 12.7135 -14.1198 6
      vertex 14.0517 -15.606 6
      vertex 15.3713 -11.1679 6
    endloop
  endfacet
  facet normal 0 0 1
    outer loop
      vertex 12.7135 -14.1198 6
      vertex 10.5 -18.1865 6
      vertex 14.0517 -15.606 6
    endloop
  endfacet
  facet normal -0 0 1
    outer loop
      vertex 9.5 -16.4545 6
      vertex 10.5 -18.1865 6
      vertex 12.7135 -14.1198 6
    endloop
  endfacet
  facet normal 0 0 1
    outer loop
      vertex 9.5 -16.4545 6
      vertex 6.48936 -19.9722 6
      vertex 10.5 -18.1865 6
    endloop
  endfacet
  facet normal -0 0 1
    outer loop
      vertex 5.87132 -18.0701 6
      vertex 6.48936 -19.9722 6
      vertex 9.5 -16.4545 6
    endloop
  endfacet
  facet normal 0 0 1
    outer loop
      vertex 5.87132 -18.0701 6
      vertex 2.1951 -20.885 6
      vertex 6.48936 -19.9722 6
    endloop
  endfacet
  facet normal -0 0 1
    outer loop
      vertex 1.98604 -18.8959 6
      vertex 2.1951 -20.885 6
      vertex 5.87132 -18.0701 6
    endloop
  endfacet
  facet normal -0 0 1
    outer loop
      vertex -1.98604 -18.8959 6
      vertex 2.1951 -20.885 6
      vertex 1.98604 -18.8959 6
    endloop
  endfacet
  facet normal 0 0 1
    outer loop
      vertex -1.98604 -18.8959 6
      vertex -2.1951 -20.885 6
      vertex 2.1951 -20.885 6
    endloop
  endfacet
  facet normal 0 0 1
    outer loop
      vertex -5.87132 -18.0701 6
      vertex -2.1951 -20.885 6
      vertex -1.98604 -18.8959 6
    endloop
  endfacet
  facet normal 0 0 1
    outer loop
      vertex -5.87132 -18.0701 6
      vertex -6.48936 -19.9722 6
      vertex -2.1951 -20.885 6
    endloop
  endfacet
  facet normal 0 0 1
    outer loop
      vertex -9.5 -16.4545 6
      vertex -6.48936 -19.9722 6
      vertex -5.87132 -18.0701 6
    endloop
  endfacet
  facet normal 0 0 1
    outer loop
      vertex -9.5 -16.4545 6
      vertex -10.5 -18.1865 6
      vertex -6.48936 -19.9722 6
    endloop
  endfacet
  facet normal 0 0 1
    outer loop
      vertex -12.7135 -14.1198 6
      vertex -10.5 -18.1865 6
      vertex -9.5 -16.4545 6
    endloop
  endfacet
  facet normal 0 0 1
    outer loop
      vertex -12.7135 -14.1198 6
      vertex -14.0517 -15.606 6
      vertex -10.5 -18.1865 6
    endloop
  endfacet
  facet normal 0 0 1
    outer loop
      vertex -15.3713 -11.1679 6
      vertex -14.0517 -15.606 6
      vertex -12.7135 -14.1198 6
    endloop
  endfacet
  facet normal 0 0 1
    outer loop
      vertex -15.3713 -11.1679 6
      vertex -16.9894 -12.3435 6
      vertex -14.0517 -15.606 6
    endloop
  endfacet
  facet normal 0 0 1
    outer loop
      vertex -17.3574 -7.728 6
      vertex -16.9894 -12.3435 6
      vertex -15.3713 -11.1679 6
    endloop
  endfacet
  facet normal 0 0 1
    outer loop
      vertex -19.1845 -8.54147 6
      vertex -17.3574 -7.728 6
      vertex -18.5848 -3.95032 6
    endloop
  endfacet
  facet normal 0 0 1
    outer loop
      vertex -17.3574 -7.728 6
      vertex -19.1845 -8.54147 6
      vertex -16.9894 -12.3435 6
    endloop
  endfacet
  facet normal 0 0 1
    outer loop
      vertex -20.5411 -4.36615 6
      vertex -18.5848 -3.95032 6
      vertex -19 0 6
    endloop
  endfacet
  facet normal 0 0 1
    outer loop
      vertex -18.5848 3.95032 6
      vertex -20.5411 4.36615 6
      vertex -19 0 6
    endloop
  endfacet
  facet normal 0 0 1
    outer loop
      vertex -21 0 6
      vertex -19 0 6
      vertex -20.5411 4.36615 6
    endloop
  endfacet
  facet normal 0 0 1
    outer loop
      vertex -18.5848 -3.95032 6
      vertex -20.5411 -4.36615 6
      vertex -19.1845 -8.54147 6
    endloop
  endfacet
  facet normal 0 0 1
    outer loop
      vertex -19 0 6
      vertex -21 0 6
      vertex -20.5411 -4.36615 6
    endloop
  endfacet
  facet normal -0.951056 0.309017 0
    outer loop
      vertex -20.5411 4.36615 -6
      vertex -19.1845 8.54147 6
      vertex -19.1845 8.54147 -6
    endloop
  endfacet
  facet normal -0.951056 0.309017 0
    outer loop
      vertex -19.1845 8.54147 6
      vertex -20.5411 4.36615 -6
      vertex -20.5411 4.36615 6
    endloop
  endfacet
  facet normal 0.866025 -0.5 0
    outer loop
      vertex 16.9894 -12.3435 6
      vertex 19.1845 -8.54147 -6
      vertex 19.1845 -8.54147 6
    endloop
  endfacet
  facet normal 0.866025 -0.5 0
    outer loop
      vertex 19.1845 -8.54147 -6
      vertex 16.9894 -12.3435 6
      vertex 16.9894 -12.3435 -6
    endloop
  endfacet
  facet normal 0 -1 0
    outer loop
      vertex -2.1951 -20.885 -6
      vertex 2.1951 -20.885 6
      vertex -2.1951 -20.885 6
    endloop
  endfacet
  facet normal 0 -1 -0
    outer loop
      vertex 2.1951 -20.885 6
      vertex -2.1951 -20.885 -6
      vertex 2.1951 -20.885 -6
    endloop
  endfacet
  facet normal -0.994522 -0.104528 0
    outer loop
      vertex -20.5411 -4.36615 -6
      vertex -21 0 6
      vertex -21 0 -6
    endloop
  endfacet
  facet normal -0.994522 -0.104528 0
    outer loop
      vertex -21 0 6
      vertex -20.5411 -4.36615 -6
      vertex -20.5411 -4.36615 6
    endloop
  endfacet
  facet normal 0 0 -1
    outer loop
      vertex 6 0 -6
      vertex 21 0 -6
      vertex 20.5411 -4.36615 -6
    endloop
  endfacet
  facet normal 0 0 -1
    outer loop
      vertex 5.6749 -1.9482 -6
      vertex 20.5411 -4.36615 -6
      vertex 19.1845 -8.54147 -6
    endloop
  endfacet
  facet normal 0 0 -1
    outer loop
      vertex 21 0 -6
      vertex 6 0 -6
      vertex 20.5411 4.36615 -6
    endloop
  endfacet
  facet normal 0 0 -1
    outer loop
      vertex 4.73484 -3.68528 -6
      vertex 19.1845 -8.54147 -6
      vertex 16.9894 -12.3435 -6
    endloop
  endfacet
  facet normal 0 0 -1
    outer loop
      vertex 5.6749 1.9482 -6
      vertex 20.5411 4.36615 -6
      vertex 6 0 -6
    endloop
  endfacet
  facet normal 0 0 -1
    outer loop
      vertex 4.73484 -3.68528 -6
      vertex 16.9894 -12.3435 -6
      vertex 14.0517 -15.606 -6
    endloop
  endfacet
  facet normal -0 0 -1
    outer loop
      vertex 20.5411 4.36615 -6
      vertex 5.6749 1.9482 -6
      vertex 19.1845 8.54147 -6
    endloop
  endfacet
  facet normal 0 0 -1
    outer loop
      vertex 3.28169 -5.023 -6
      vertex 14.0517 -15.606 -6
      vertex 10.5 -18.1865 -6
    endloop
  endfacet
  facet normal 0 0 -1
    outer loop
      vertex 4.73484 3.68528 -6
      vertex 19.1845 8.54147 -6
      vertex 5.6749 1.9482 -6
    endloop
  endfacet
  facet normal 0 0 -1
    outer loop
      vertex 3.28169 -5.023 -6
      vertex 10.5 -18.1865 -6
      vertex 6.48936 -19.9722 -6
    endloop
  endfacet
  facet normal -0 0 -1
    outer loop
      vertex 19.1845 8.54147 -6
      vertex 4.73484 3.68528 -6
      vertex 16.9894 12.3435 -6
    endloop
  endfacet
  facet normal -0 0 -1
    outer loop
      vertex 16.9894 12.3435 -6
      vertex 4.73484 3.68528 -6
      vertex 14.0517 15.606 -6
    endloop
  endfacet
  facet normal 0 0 -1
    outer loop
      vertex 20.5411 -4.36615 -6
      vertex 5.6749 -1.9482 -6
      vertex 6 0 -6
    endloop
  endfacet
  facet normal 0 0 -1
    outer loop
      vertex 19.1845 -8.54147 -6
      vertex 4.73484 -3.68528 -6
      vertex 5.6749 -1.9482 -6
    endloop
  endfacet
  facet normal 0 0 -1
    outer loop
      vertex 14.0517 -15.606 -6
      vertex 3.28169 -5.023 -6
      vertex 4.73484 -3.68528 -6
    endloop
  endfacet
  facet normal 0 0 -1
    outer loop
      vertex 1.47291 -5.8164 -6
      vertex 6.48936 -19.9722 -6
      vertex 2.1951 -20.885 -6
    endloop
  endfacet
  facet normal 0 0 -1
    outer loop
      vertex 6.48936 -19.9722 -6
      vertex 1.47291 -5.8164 -6
      vertex 3.28169 -5.023 -6
    endloop
  endfacet
  facet normal 0 0 -1
    outer loop
      vertex 2.1951 -20.885 -6
      vertex -0.495476 -5.97951 -6
      vertex 1.47291 -5.8164 -6
    endloop
  endfacet
  facet normal 0 0 -1
    outer loop
      vertex -2.1951 -20.885 -6
      vertex -0.495476 -5.97951 -6
      vertex 2.1951 -20.885 -6
    endloop
  endfacet
  facet normal 0 0 -1
    outer loop
      vertex -6.48936 -19.9722 -6
      vertex -0.495476 -5.97951 -6
      vertex -2.1951 -20.885 -6
    endloop
  endfacet
  facet normal -0 0 -1
    outer loop
      vertex -0.495476 -5.97951 -6
      vertex -6.48936 -19.9722 -6
      vertex -2.41017 -5.49464 -6
    endloop
  endfacet
  facet normal 0 0 -1
    outer loop
      vertex -10.5 -18.1865 -6
      vertex -2.41017 -5.49464 -6
      vertex -6.48936 -19.9722 -6
    endloop
  endfacet
  facet normal -0 0 -1
    outer loop
      vertex -2.41017 -5.49464 -6
      vertex -10.5 -18.1865 -6
      vertex -4.06369 -4.41434 -6
    endloop
  endfacet
  facet normal 0 0 -1
    outer loop
      vertex -16.9894 -12.3435 -6
      vertex -4.06369 -4.41434 -6
      vertex -14.0517 -15.606 -6
    endloop
  endfacet
  facet normal 0 0 -1
    outer loop
      vertex -14.0517 -15.606 -6
      vertex -4.06369 -4.41434 -6
      vertex -10.5 -18.1865 -6
    endloop
  endfacet
  facet normal 0 0 -1
    outer loop
      vertex 3.28169 5.023 -6
      vertex 14.0517 15.606 -6
      vertex 4.73484 3.68528 -6
    endloop
  endfacet
  facet normal -0 0 -1
    outer loop
      vertex 14.0517 15.606 -6
      vertex 3.28169 5.023 -6
      vertex 10.5 18.1865 -6
    endloop
  endfacet
  facet normal -0 0 -1
    outer loop
      vertex 10.5 18.1865 -6
      vertex 3.28169 5.023 -6
      vertex 6.48936 19.9722 -6
    endloop
  endfacet
  facet normal 0 0 -1
    outer loop
      vertex 1.47291 5.8164 -6
      vertex 6.48936 19.9722 -6
      vertex 3.28169 5.023 -6
    endloop
  endfacet
  facet normal -0 0 -1
    outer loop
      vertex 6.48936 19.9722 -6
      vertex 1.47291 5.8164 -6
      vertex 2.1951 20.885 -6
    endloop
  endfacet
  facet normal 0 0 -1
    outer loop
      vertex -0.495476 5.97951 -6
      vertex 2.1951 20.885 -6
      vertex 1.47291 5.8164 -6
    endloop
  endfacet
  facet normal 0 0 -1
    outer loop
      vertex -0.495476 5.97951 -6
      vertex -2.1951 20.885 -6
      vertex 2.1951 20.885 -6
    endloop
  endfacet
  facet normal 0 0 -1
    outer loop
      vertex -6.48936 19.9722 -6
      vertex -0.495476 5.97951 -6
      vertex -2.41017 5.49464 -6
    endloop
  endfacet
  facet normal 0 0 -1
    outer loop
      vertex -10.5 18.1865 -6
      vertex -2.41017 5.49464 -6
      vertex -4.06369 4.41434 -6
    endloop
  endfacet
  facet normal 0 0 -1
    outer loop
      vertex -16.9894 12.3435 -6
      vertex -4.06369 4.41434 -6
      vertex -5.27684 2.85568 -6
    endloop
  endfacet
  facet normal 0 0 -1
    outer loop
      vertex -19.1845 8.54147 -6
      vertex -5.27684 2.85568 -6
      vertex -5.91817 0.987567 -6
    endloop
  endfacet
  facet normal 0 0 -1
    outer loop
      vertex -0.495476 5.97951 -6
      vertex -6.48936 19.9722 -6
      vertex -2.1951 20.885 -6
    endloop
  endfacet
  facet normal -0 0 -1
    outer loop
      vertex -4.06369 -4.41434 -6
      vertex -16.9894 -12.3435 -6
      vertex -5.27684 -2.85568 -6
    endloop
  endfacet
  facet normal 0 0 -1
    outer loop
      vertex -2.41017 5.49464 -6
      vertex -10.5 18.1865 -6
      vertex -6.48936 19.9722 -6
    endloop
  endfacet
  facet normal 0 0 -1
    outer loop
      vertex -19.1845 -8.54147 -6
      vertex -5.27684 -2.85568 -6
      vertex -16.9894 -12.3435 -6
    endloop
  endfacet
  facet normal -0 0 -1
    outer loop
      vertex -5.27684 -2.85568 -6
      vertex -19.1845 -8.54147 -6
      vertex -5.91817 -0.987567 -6
    endloop
  endfacet
  facet normal 0 0 -1
    outer loop
      vertex -4.06369 4.41434 -6
      vertex -14.0517 15.606 -6
      vertex -10.5 18.1865 -6
    endloop
  endfacet
  facet normal 0 0 -1
    outer loop
      vertex -20.5411 -4.36615 -6
      vertex -5.91817 -0.987567 -6
      vertex -19.1845 -8.54147 -6
    endloop
  endfacet
  facet normal 0 0 -1
    outer loop
      vertex -4.06369 4.41434 -6
      vertex -16.9894 12.3435 -6
      vertex -14.0517 15.606 -6
    endloop
  endfacet
  facet normal 0 0 -1
    outer loop
      vertex -21 0 -6
      vertex -5.91817 -0.987567 -6
      vertex -20.5411 -4.36615 -6
    endloop
  endfacet
  facet normal 0 0 -1
    outer loop
      vertex -5.27684 2.85568 -6
      vertex -19.1845 8.54147 -6
      vertex -16.9894 12.3435 -6
    endloop
  endfacet
  facet normal 0 0 -1
    outer loop
      vertex -5.91817 -0.987567 -6
      vertex -21 0 -6
      vertex -5.91817 0.987567 -6
    endloop
  endfacet
  facet normal 0 0 -1
    outer loop
      vertex -5.91817 0.987567 -6
      vertex -20.5411 4.36615 -6
      vertex -19.1845 8.54147 -6
    endloop
  endfacet
  facet normal -0 0 -1
    outer loop
      vertex -5.91817 0.987567 -6
      vertex -21 0 -6
      vertex -20.5411 4.36615 -6
    endloop
  endfacet
  facet normal -0.743145 -0.669131 0
    outer loop
      vertex -14.0517 -15.606 -6
      vertex -16.9894 -12.3435 6
      vertex -16.9894 -12.3435 -6
    endloop
  endfacet
  facet normal -0.743145 -0.669131 0
    outer loop
      vertex -16.9894 -12.3435 6
      vertex -14.0517 -15.606 -6
      vertex -14.0517 -15.606 6
    endloop
  endfacet
  facet normal 0.406737 -0.913545 0
    outer loop
      vertex 6.48936 -19.9722 -6
      vertex 10.5 -18.1865 6
      vertex 6.48936 -19.9722 6
    endloop
  endfacet
  facet normal 0.406737 -0.913545 0
    outer loop
      vertex 10.5 -18.1865 6
      vertex 6.48936 -19.9722 -6
      vertex 10.5 -18.1865 -6
    endloop
  endfacet
  facet normal -0.406737 -0.913545 0
    outer loop
      vertex -10.5 -18.1865 -6
      vertex -6.48936 -19.9722 6
      vertex -10.5 -18.1865 6
    endloop
  endfacet
  facet normal -0.406737 -0.913545 -0
    outer loop
      vertex -6.48936 -19.9722 6
      vertex -10.5 -18.1865 -6
      vertex -6.48936 -19.9722 -6
    endloop
  endfacet
  facet normal -0.951056 -0.309017 0
    outer loop
      vertex -19.1845 -8.54147 -6
      vertex -20.5411 -4.36615 6
      vertex -20.5411 -4.36615 -6
    endloop
  endfacet
  facet normal -0.951056 -0.309017 0
    outer loop
      vertex -20.5411 -4.36615 6
      vertex -19.1845 -8.54147 -6
      vertex -19.1845 -8.54147 6
    endloop
  endfacet
  facet normal 0.743145 -0.669131 0
    outer loop
      vertex 14.0517 -15.606 6
      vertex 16.9894 -12.3435 -6
      vertex 16.9894 -12.3435 6
    endloop
  endfacet
  facet normal 0.743145 -0.669131 0
    outer loop
      vertex 16.9894 -12.3435 -6
      vertex 14.0517 -15.606 6
      vertex 14.0517 -15.606 -6
    endloop
  endfacet
  facet normal -0.207912 -0.978148 0
    outer loop
      vertex -6.48936 -19.9722 -6
      vertex -2.1951 -20.885 6
      vertex -6.48936 -19.9722 6
    endloop
  endfacet
  facet normal -0.207912 -0.978148 -0
    outer loop
      vertex -2.1951 -20.885 6
      vertex -6.48936 -19.9722 -6
      vertex -2.1951 -20.885 -6
    endloop
  endfacet
  facet normal -0.994522 -0.104528 0
    outer loop
      vertex 19 0 -3
      vertex 18.5848 3.95032 6
      vertex 18.5848 3.95032 -3
    endloop
  endfacet
  facet normal -0.994522 -0.104528 0
    outer loop
      vertex 18.5848 3.95032 6
      vertex 19 0 -3
      vertex 19 0 6
    endloop
  endfacet
  facet normal 0.994522 -0.104528 0
    outer loop
      vertex -19 0 6
      vertex -18.5848 3.95032 -3
      vertex -18.5848 3.95032 6
    endloop
  endfacet
  facet normal 0.994522 -0.104528 0
    outer loop
      vertex -18.5848 3.95032 -3
      vertex -19 0 6
      vertex -19 0 -3
    endloop
  endfacet
  facet normal 0 -1 0
    outer loop
      vertex -1.98604 18.8959 -3
      vertex 1.98604 18.8959 6
      vertex -1.98604 18.8959 6
    endloop
  endfacet
  facet normal 0 -1 -0
    outer loop
      vertex 1.98604 18.8959 6
      vertex -1.98604 18.8959 -3
      vertex 1.98604 18.8959 -3
    endloop
  endfacet
  facet normal 0 1 -0
    outer loop
      vertex 1.98604 -18.8959 -3
      vertex -1.98604 -18.8959 6
      vertex 1.98604 -18.8959 6
    endloop
  endfacet
  facet normal 0 1 0
    outer loop
      vertex -1.98604 -18.8959 6
      vertex 1.98604 -18.8959 -3
      vertex -1.98604 -18.8959 -3
    endloop
  endfacet
  facet normal -0.587785 -0.809017 0
    outer loop
      vertex 9.5 16.4545 -3
      vertex 12.7135 14.1198 6
      vertex 9.5 16.4545 6
    endloop
  endfacet
  facet normal -0.587785 -0.809017 -0
    outer loop
      vertex 12.7135 14.1198 6
      vertex 9.5 16.4545 -3
      vertex 12.7135 14.1198 -3
    endloop
  endfacet
  facet normal 0.743145 -0.669131 0
    outer loop
      vertex -15.3713 11.1679 6
      vertex -12.7135 14.1198 -3
      vertex -12.7135 14.1198 6
    endloop
  endfacet
  facet normal 0.743145 -0.669131 0
    outer loop
      vertex -12.7135 14.1198 -3
      vertex -15.3713 11.1679 6
      vertex -15.3713 11.1679 -3
    endloop
  endfacet
  facet normal 0.866025 -0.5 0
    outer loop
      vertex -17.3574 7.728 6
      vertex -15.3713 11.1679 -3
      vertex -15.3713 11.1679 6
    endloop
  endfacet
  facet normal 0.866025 -0.5 0
    outer loop
      vertex -15.3713 11.1679 -3
      vertex -17.3574 7.728 6
      vertex -17.3574 7.728 -3
    endloop
  endfacet
  facet normal 0.406736 -0.913546 0
    outer loop
      vertex -9.5 16.4545 -3
      vertex -5.87132 18.0701 6
      vertex -9.5 16.4545 6
    endloop
  endfacet
  facet normal 0.406736 -0.913546 0
    outer loop
      vertex -5.87132 18.0701 6
      vertex -9.5 16.4545 -3
      vertex -5.87132 18.0701 -3
    endloop
  endfacet
  facet normal -0.951056 0.309017 0
    outer loop
      vertex 17.3574 -7.728 -3
      vertex 18.5848 -3.95032 6
      vertex 18.5848 -3.95032 -3
    endloop
  endfacet
  facet normal -0.951056 0.309017 0
    outer loop
      vertex 18.5848 -3.95032 6
      vertex 17.3574 -7.728 -3
      vertex 17.3574 -7.728 6
    endloop
  endfacet
  facet normal -0.866025 -0.5 0
    outer loop
      vertex 17.3574 7.728 -3
      vertex 15.3713 11.1679 6
      vertex 15.3713 11.1679 -3
    endloop
  endfacet
  facet normal -0.866025 -0.5 0
    outer loop
      vertex 15.3713 11.1679 6
      vertex 17.3574 7.728 -3
      vertex 17.3574 7.728 6
    endloop
  endfacet
  facet normal -0.951056 -0.309017 0
    outer loop
      vertex 18.5848 3.95032 -3
      vertex 17.3574 7.728 6
      vertex 17.3574 7.728 -3
    endloop
  endfacet
  facet normal -0.951056 -0.309017 0
    outer loop
      vertex 17.3574 7.728 6
      vertex 18.5848 3.95032 -3
      vertex 18.5848 3.95032 6
    endloop
  endfacet
  facet normal -0.743145 -0.669131 0
    outer loop
      vertex 15.3713 11.1679 -3
      vertex 12.7135 14.1198 6
      vertex 12.7135 14.1198 -3
    endloop
  endfacet
  facet normal -0.743145 -0.669131 0
    outer loop
      vertex 12.7135 14.1198 6
      vertex 15.3713 11.1679 -3
      vertex 15.3713 11.1679 6
    endloop
  endfacet
  facet normal -0.207912 -0.978148 0
    outer loop
      vertex 1.98604 18.8959 -3
      vertex 5.87132 18.0701 6
      vertex 1.98604 18.8959 6
    endloop
  endfacet
  facet normal -0.207912 -0.978148 -0
    outer loop
      vertex 5.87132 18.0701 6
      vertex 1.98604 18.8959 -3
      vertex 5.87132 18.0701 -3
    endloop
  endfacet
  facet normal -0.406736 -0.913546 0
    outer loop
      vertex 5.87132 18.0701 -3
      vertex 9.5 16.4545 6
      vertex 5.87132 18.0701 6
    endloop
  endfacet
  facet normal -0.406736 -0.913546 -0
    outer loop
      vertex 9.5 16.4545 6
      vertex 5.87132 18.0701 -3
      vertex 9.5 16.4545 -3
    endloop
  endfacet
  facet normal 0.951056 -0.309017 0
    outer loop
      vertex -18.5848 3.95032 6
      vertex -17.3574 7.728 -3
      vertex -17.3574 7.728 6
    endloop
  endfacet
  facet normal 0.951056 -0.309017 0
    outer loop
      vertex -17.3574 7.728 -3
      vertex -18.5848 3.95032 6
      vertex -18.5848 3.95032 -3
    endloop
  endfacet
  facet normal 0.587785 -0.809017 0
    outer loop
      vertex -12.7135 14.1198 -3
      vertex -9.5 16.4545 6
      vertex -12.7135 14.1198 6
    endloop
  endfacet
  facet normal 0.587785 -0.809017 0
    outer loop
      vertex -9.5 16.4545 6
      vertex -12.7135 14.1198 -3
      vertex -9.5 16.4545 -3
    endloop
  endfacet
  facet normal 0.207912 -0.978148 0
    outer loop
      vertex -5.87132 18.0701 -3
      vertex -1.98604 18.8959 6
      vertex -5.87132 18.0701 6
    endloop
  endfacet
  facet normal 0.207912 -0.978148 0
    outer loop
      vertex -1.98604 18.8959 6
      vertex -5.87132 18.0701 -3
      vertex -1.98604 18.8959 -3
    endloop
  endfacet
  facet normal -0.994522 0.104528 0
    outer loop
      vertex 18.5848 -3.95032 -3
      vertex 19 0 6
      vertex 19 0 -3
    endloop
  endfacet
  facet normal -0.994522 0.104528 0
    outer loop
      vertex 19 0 6
      vertex 18.5848 -3.95032 -3
      vertex 18.5848 -3.95032 6
    endloop
  endfacet
  facet normal 0 0 1
    outer loop
      vertex 6 0 -3
      vertex 19 0 -3
      vertex 18.5848 3.95032 -3
    endloop
  endfacet
  facet normal 0 0 1
    outer loop
      vertex 5.6749 1.9482 -3
      vertex 18.5848 3.95032 -3
      vertex 17.3574 7.728 -3
    endloop
  endfacet
  facet normal 0 0 1
    outer loop
      vertex 19 0 -3
      vertex 6 0 -3
      vertex 18.5848 -3.95032 -3
    endloop
  endfacet
  facet normal 0 0 1
    outer loop
      vertex 4.73484 3.68528 -3
      vertex 17.3574 7.728 -3
      vertex 15.3713 11.1679 -3
    endloop
  endfacet
  facet normal -0 0 1
    outer loop
      vertex 5.6749 -1.9482 -3
      vertex 18.5848 -3.95032 -3
      vertex 6 0 -3
    endloop
  endfacet
  facet normal 0 0 1
    outer loop
      vertex 4.73484 3.68528 -3
      vertex 15.3713 11.1679 -3
      vertex 12.7135 14.1198 -3
    endloop
  endfacet
  facet normal 0 0 1
    outer loop
      vertex 18.5848 -3.95032 -3
      vertex 5.6749 -1.9482 -3
      vertex 17.3574 -7.728 -3
    endloop
  endfacet
  facet normal 0 0 1
    outer loop
      vertex 3.28169 5.023 -3
      vertex 12.7135 14.1198 -3
      vertex 9.5 16.4545 -3
    endloop
  endfacet
  facet normal -0 0 1
    outer loop
      vertex 4.73484 -3.68528 -3
      vertex 17.3574 -7.728 -3
      vertex 5.6749 -1.9482 -3
    endloop
  endfacet
  facet normal 0 0 1
    outer loop
      vertex 17.3574 -7.728 -3
      vertex 4.73484 -3.68528 -3
      vertex 15.3713 -11.1679 -3
    endloop
  endfacet
  facet normal 0 0 1
    outer loop
      vertex 3.28169 5.023 -3
      vertex 9.5 16.4545 -3
      vertex 5.87132 18.0701 -3
    endloop
  endfacet
  facet normal 0 0 1
    outer loop
      vertex 18.5848 3.95032 -3
      vertex 5.6749 1.9482 -3
      vertex 6 0 -3
    endloop
  endfacet
  facet normal 0 0 1
    outer loop
      vertex 17.3574 7.728 -3
      vertex 4.73484 3.68528 -3
      vertex 5.6749 1.9482 -3
    endloop
  endfacet
  facet normal 0 0 1
    outer loop
      vertex 12.7135 14.1198 -3
      vertex 3.28169 5.023 -3
      vertex 4.73484 3.68528 -3
    endloop
  endfacet
  facet normal 0 0 1
    outer loop
      vertex 1.47291 5.8164 -3
      vertex 5.87132 18.0701 -3
      vertex 1.98604 18.8959 -3
    endloop
  endfacet
  facet normal 0 0 1
    outer loop
      vertex 5.87132 18.0701 -3
      vertex 1.47291 5.8164 -3
      vertex 3.28169 5.023 -3
    endloop
  endfacet
  facet normal 0 0 1
    outer loop
      vertex 1.98604 18.8959 -3
      vertex -0.495476 5.97951 -3
      vertex 1.47291 5.8164 -3
    endloop
  endfacet
  facet normal -0 0 1
    outer loop
      vertex -1.98604 18.8959 -3
      vertex -0.495476 5.97951 -3
      vertex 1.98604 18.8959 -3
    endloop
  endfacet
  facet normal -0 0 1
    outer loop
      vertex -5.87132 18.0701 -3
      vertex -0.495476 5.97951 -3
      vertex -1.98604 18.8959 -3
    endloop
  endfacet
  facet normal 0 0 1
    outer loop
      vertex -0.495476 5.97951 -3
      vertex -5.87132 18.0701 -3
      vertex -2.41017 5.49464 -3
    endloop
  endfacet
  facet normal -0 0 1
    outer loop
      vertex -9.5 16.4545 -3
      vertex -2.41017 5.49464 -3
      vertex -5.87132 18.0701 -3
    endloop
  endfacet
  facet normal 0 0 1
    outer loop
      vertex -2.41017 5.49464 -3
      vertex -9.5 16.4545 -3
      vertex -4.06369 4.41434 -3
    endloop
  endfacet
  facet normal -0 0 1
    outer loop
      vertex -12.7135 14.1198 -3
      vertex -4.06369 4.41434 -3
      vertex -9.5 16.4545 -3
    endloop
  endfacet
  facet normal 0 0 1
    outer loop
      vertex -4.06369 4.41434 -3
      vertex -15.3713 11.1679 -3
      vertex -5.27684 2.85568 -3
    endloop
  endfacet
  facet normal -0 0 1
    outer loop
      vertex -15.3713 11.1679 -3
      vertex -4.06369 4.41434 -3
      vertex -12.7135 14.1198 -3
    endloop
  endfacet
  facet normal 0 0 1
    outer loop
      vertex 15.3713 -11.1679 -3
      vertex 4.73484 -3.68528 -3
      vertex 12.7135 -14.1198 -3
    endloop
  endfacet
  facet normal -0 0 1
    outer loop
      vertex 3.28169 -5.023 -3
      vertex 12.7135 -14.1198 -3
      vertex 4.73484 -3.68528 -3
    endloop
  endfacet
  facet normal 0 0 1
    outer loop
      vertex 12.7135 -14.1198 -3
      vertex 3.28169 -5.023 -3
      vertex 9.5 -16.4545 -3
    endloop
  endfacet
  facet normal 0 0 1
    outer loop
      vertex 9.5 -16.4545 -3
      vertex 3.28169 -5.023 -3
      vertex 5.87132 -18.0701 -3
    endloop
  endfacet
  facet normal -0 0 1
    outer loop
      vertex 1.47291 -5.8164 -3
      vertex 5.87132 -18.0701 -3
      vertex 3.28169 -5.023 -3
    endloop
  endfacet
  facet normal 0 0 1
    outer loop
      vertex 5.87132 -18.0701 -3
      vertex 1.47291 -5.8164 -3
      vertex 1.98604 -18.8959 -3
    endloop
  endfacet
  facet normal -0 0 1
    outer loop
      vertex -0.495476 -5.97951 -3
      vertex 1.98604 -18.8959 -3
      vertex 1.47291 -5.8164 -3
    endloop
  endfacet
  facet normal 0 0 1
    outer loop
      vertex -0.495476 -5.97951 -3
      vertex -1.98604 -18.8959 -3
      vertex 1.98604 -18.8959 -3
    endloop
  endfacet
  facet normal 0 0 1
    outer loop
      vertex -5.87132 -18.0701 -3
      vertex -0.495476 -5.97951 -3
      vertex -2.41017 -5.49464 -3
    endloop
  endfacet
  facet normal 0 0 1
    outer loop
      vertex -9.5 -16.4545 -3
      vertex -2.41017 -5.49464 -3
      vertex -4.06369 -4.41434 -3
    endloop
  endfacet
  facet normal 0 0 1
    outer loop
      vertex -15.3713 -11.1679 -3
      vertex -4.06369 -4.41434 -3
      vertex -5.27684 -2.85568 -3
    endloop
  endfacet
  facet normal 0 0 1
    outer loop
      vertex -0.495476 -5.97951 -3
      vertex -5.87132 -18.0701 -3
      vertex -1.98604 -18.8959 -3
    endloop
  endfacet
  facet normal 0 0 1
    outer loop
      vertex -17.3574 -7.728 -3
      vertex -5.27684 -2.85568 -3
      vertex -5.91817 -0.987567 -3
    endloop
  endfacet
  facet normal -0 0 1
    outer loop
      vertex -17.3574 7.728 -3
      vertex -5.27684 2.85568 -3
      vertex -15.3713 11.1679 -3
    endloop
  endfacet
  facet normal 0 0 1
    outer loop
      vertex -2.41017 -5.49464 -3
      vertex -9.5 -16.4545 -3
      vertex -5.87132 -18.0701 -3
    endloop
  endfacet
  facet normal 0 0 1
    outer loop
      vertex -5.27684 2.85568 -3
      vertex -17.3574 7.728 -3
      vertex -5.91817 0.987567 -3
    endloop
  endfacet
  facet normal 0 0 1
    outer loop
      vertex -4.06369 -4.41434 -3
      vertex -12.7135 -14.1198 -3
      vertex -9.5 -16.4545 -3
    endloop
  endfacet
  facet normal -0 0 1
    outer loop
      vertex -18.5848 3.95032 -3
      vertex -5.91817 0.987567 -3
      vertex -17.3574 7.728 -3
    endloop
  endfacet
  facet normal 0 0 1
    outer loop
      vertex -4.06369 -4.41434 -3
      vertex -15.3713 -11.1679 -3
      vertex -12.7135 -14.1198 -3
    endloop
  endfacet
  facet normal 0 0 1
    outer loop
      vertex -19 0 -3
      vertex -5.91817 0.987567 -3
      vertex -18.5848 3.95032 -3
    endloop
  endfacet
  facet normal 0 0 1
    outer loop
      vertex -5.27684 -2.85568 -3
      vertex -17.3574 -7.728 -3
      vertex -15.3713 -11.1679 -3
    endloop
  endfacet
  facet normal 0 0 1
    outer loop
      vertex -5.91817 0.987567 -3
      vertex -19 0 -3
      vertex -5.91817 -0.987567 -3
    endloop
  endfacet
  facet normal 0 0 1
    outer loop
      vertex -5.91817 -0.987567 -3
      vertex -18.5848 -3.95032 -3
      vertex -17.3574 -7.728 -3
    endloop
  endfacet
  facet normal 0 0 1
    outer loop
      vertex -5.91817 -0.987567 -3
      vertex -19 0 -3
      vertex -18.5848 -3.95032 -3
    endloop
  endfacet
  facet normal -0.866025 0.5 0
    outer loop
      vertex 15.3713 -11.1679 -3
      vertex 17.3574 -7.728 6
      vertex 17.3574 -7.728 -3
    endloop
  endfacet
  facet normal -0.866025 0.5 0
    outer loop
      vertex 17.3574 -7.728 6
      vertex 15.3713 -11.1679 -3
      vertex 15.3713 -11.1679 6
    endloop
  endfacet
  facet normal 0.866025 0.5 0
    outer loop
      vertex -15.3713 -11.1679 6
      vertex -17.3574 -7.728 -3
      vertex -17.3574 -7.728 6
    endloop
  endfacet
  facet normal 0.866025 0.5 0
    outer loop
      vertex -17.3574 -7.728 -3
      vertex -15.3713 -11.1679 6
      vertex -15.3713 -11.1679 -3
    endloop
  endfacet
  facet normal -0.587785 0.809017 0
    outer loop
      vertex 12.7135 -14.1198 -3
      vertex 9.5 -16.4545 6
      vertex 12.7135 -14.1198 6
    endloop
  endfacet
  facet normal -0.587785 0.809017 0
    outer loop
      vertex 9.5 -16.4545 6
      vertex 12.7135 -14.1198 -3
      vertex 9.5 -16.4545 -3
    endloop
  endfacet
  facet normal 0.207912 0.978148 -0
    outer loop
      vertex -1.98604 -18.8959 -3
      vertex -5.87132 -18.0701 6
      vertex -1.98604 -18.8959 6
    endloop
  endfacet
  facet normal 0.207912 0.978148 0
    outer loop
      vertex -5.87132 -18.0701 6
      vertex -1.98604 -18.8959 -3
      vertex -5.87132 -18.0701 -3
    endloop
  endfacet
  facet normal 0.743145 0.669131 0
    outer loop
      vertex -12.7135 -14.1198 6
      vertex -15.3713 -11.1679 -3
      vertex -15.3713 -11.1679 6
    endloop
  endfacet
  facet normal 0.743145 0.669131 0
    outer loop
      vertex -15.3713 -11.1679 -3
      vertex -12.7135 -14.1198 6
      vertex -12.7135 -14.1198 -3
    endloop
  endfacet
  facet normal 0.951056 0.309017 0
    outer loop
      vertex -17.3574 -7.728 6
      vertex -18.5848 -3.95032 -3
      vertex -18.5848 -3.95032 6
    endloop
  endfacet
  facet normal 0.951056 0.309017 0
    outer loop
      vertex -18.5848 -3.95032 -3
      vertex -17.3574 -7.728 6
      vertex -17.3574 -7.728 -3
    endloop
  endfacet
  facet normal 0.994522 0.104528 0
    outer loop
      vertex -18.5848 -3.95032 6
      vertex -19 0 -3
      vertex -19 0 6
    endloop
  endfacet
  facet normal 0.994522 0.104528 0
    outer loop
      vertex -19 0 -3
      vertex -18.5848 -3.95032 6
      vertex -18.5848 -3.95032 -3
    endloop
  endfacet
  facet normal -0.406736 0.913546 0
    outer loop
      vertex 9.5 -16.4545 -3
      vertex 5.87132 -18.0701 6
      vertex 9.5 -16.4545 6
    endloop
  endfacet
  facet normal -0.406736 0.913546 0
    outer loop
      vertex 5.87132 -18.0701 6
      vertex 9.5 -16.4545 -3
      vertex 5.87132 -18.0701 -3
    endloop
  endfacet
  facet normal -0.207912 0.978148 0
    outer loop
      vertex 5.87132 -18.0701 -3
      vertex 1.98604 -18.8959 6
      vertex 5.87132 -18.0701 6
    endloop
  endfacet
  facet normal -0.207912 0.978148 0
    outer loop
      vertex 1.98604 -18.8959 6
      vertex 5.87132 -18.0701 -3
      vertex 1.98604 -18.8959 -3
    endloop
  endfacet
  facet normal -0.743145 0.669131 0
    outer loop
      vertex 12.7135 -14.1198 -3
      vertex 15.3713 -11.1679 6
      vertex 15.3713 -11.1679 -3
    endloop
  endfacet
  facet normal -0.743145 0.669131 0
    outer loop
      vertex 15.3713 -11.1679 6
      vertex 12.7135 -14.1198 -3
      vertex 12.7135 -14.1198 6
    endloop
  endfacet
  facet normal 0.406736 0.913546 -0
    outer loop
      vertex -5.87132 -18.0701 -3
      vertex -9.5 -16.4545 6
      vertex -5.87132 -18.0701 6
    endloop
  endfacet
  facet normal 0.406736 0.913546 0
    outer loop
      vertex -9.5 -16.4545 6
      vertex -5.87132 -18.0701 -3
      vertex -9.5 -16.4545 -3
    endloop
  endfacet
  facet normal 0.587785 0.809017 -0
    outer loop
      vertex -9.5 -16.4545 -3
      vertex -12.7135 -14.1198 6
      vertex -9.5 -16.4545 6
    endloop
  endfacet
  facet normal 0.587785 0.809017 0
    outer loop
      vertex -12.7135 -14.1198 6
      vertex -9.5 -16.4545 -3
      vertex -12.7135 -14.1198 -3
    endloop
  endfacet
  facet normal -0.986361 -0.164595 0
    outer loop
      vertex 6 0 -6
      vertex 5.6749 1.9482 -3
      vertex 5.6749 1.9482 -6
    endloop
  endfacet
  facet normal -0.986361 -0.164595 0
    outer loop
      vertex 5.6749 1.9482 -3
      vertex 6 0 -6
      vertex 6 0 -3
    endloop
  endfacet
  facet normal 1 -0 0
    outer loop
      vertex -5.91817 -0.987567 -3
      vertex -5.91817 0.987567 -6
      vertex -5.91817 0.987567 -3
    endloop
  endfacet
  facet normal 1 0 0
    outer loop
      vertex -5.91817 0.987567 -6
      vertex -5.91817 -0.987567 -3
      vertex -5.91817 -0.987567 -6
    endloop
  endfacet
  facet normal -0.0825792 -0.996585 0
    outer loop
      vertex -0.495476 5.97951 -6
      vertex 1.47291 5.8164 -3
      vertex -0.495476 5.97951 -3
    endloop
  endfacet
  facet normal -0.0825792 -0.996585 -0
    outer loop
      vertex 1.47291 5.8164 -3
      vertex -0.495476 5.97951 -6
      vertex 1.47291 5.8164 -6
    endloop
  endfacet
  facet normal -0.0825792 0.996585 0
    outer loop
      vertex 1.47291 -5.8164 -6
      vertex -0.495476 -5.97951 -3
      vertex 1.47291 -5.8164 -3
    endloop
  endfacet
  facet normal -0.0825792 0.996585 0
    outer loop
      vertex -0.495476 -5.97951 -3
      vertex 1.47291 -5.8164 -6
      vertex -0.495476 -5.97951 -6
    endloop
  endfacet
  facet normal -0.401695 0.915773 0
    outer loop
      vertex 3.28169 -5.023 -6
      vertex 1.47291 -5.8164 -3
      vertex 3.28169 -5.023 -3
    endloop
  endfacet
  facet normal -0.401695 0.915773 0
    outer loop
      vertex 1.47291 -5.8164 -3
      vertex 3.28169 -5.023 -6
      vertex 1.47291 -5.8164 -6
    endloop
  endfacet
  facet normal -0.677282 -0.735724 0
    outer loop
      vertex 3.28169 5.023 -6
      vertex 4.73484 3.68528 -3
      vertex 3.28169 5.023 -3
    endloop
  endfacet
  facet normal -0.677282 -0.735724 -0
    outer loop
      vertex 4.73484 3.68528 -3
      vertex 3.28169 5.023 -6
      vertex 4.73484 3.68528 -6
    endloop
  endfacet
  facet normal -0.879474 -0.475947 0
    outer loop
      vertex 5.6749 1.9482 -6
      vertex 4.73484 3.68528 -3
      vertex 4.73484 3.68528 -6
    endloop
  endfacet
  facet normal -0.879474 -0.475947 0
    outer loop
      vertex 4.73484 3.68528 -3
      vertex 5.6749 1.9482 -6
      vertex 5.6749 1.9482 -3
    endloop
  endfacet
  facet normal -0.401695 -0.915773 0
    outer loop
      vertex 1.47291 5.8164 -6
      vertex 3.28169 5.023 -3
      vertex 1.47291 5.8164 -3
    endloop
  endfacet
  facet normal -0.401695 -0.915773 -0
    outer loop
      vertex 3.28169 5.023 -3
      vertex 1.47291 5.8164 -6
      vertex 3.28169 5.023 -6
    endloop
  endfacet
  facet normal 0.78914 -0.614213 0
    outer loop
      vertex -5.27684 2.85568 -3
      vertex -4.06369 4.41434 -6
      vertex -4.06369 4.41434 -3
    endloop
  endfacet
  facet normal 0.78914 -0.614213 0
    outer loop
      vertex -4.06369 4.41434 -6
      vertex -5.27684 2.85568 -3
      vertex -5.27684 2.85568 -6
    endloop
  endfacet
  facet normal 0.945817 -0.324699 0
    outer loop
      vertex -5.91817 0.987567 -3
      vertex -5.27684 2.85568 -6
      vertex -5.27684 2.85568 -3
    endloop
  endfacet
  facet normal 0.945817 -0.324699 0
    outer loop
      vertex -5.27684 2.85568 -6
      vertex -5.91817 0.987567 -3
      vertex -5.91817 0.987567 -6
    endloop
  endfacet
  facet normal 0.245486 -0.9694 0
    outer loop
      vertex -2.41017 5.49464 -6
      vertex -0.495476 5.97951 -3
      vertex -2.41017 5.49464 -3
    endloop
  endfacet
  facet normal 0.245486 -0.9694 0
    outer loop
      vertex -0.495476 5.97951 -3
      vertex -2.41017 5.49464 -6
      vertex -0.495476 5.97951 -6
    endloop
  endfacet
  facet normal 0.546948 0.837166 -0
    outer loop
      vertex -2.41017 -5.49464 -6
      vertex -4.06369 -4.41434 -3
      vertex -2.41017 -5.49464 -3
    endloop
  endfacet
  facet normal 0.546948 0.837166 0
    outer loop
      vertex -4.06369 -4.41434 -3
      vertex -2.41017 -5.49464 -6
      vertex -4.06369 -4.41434 -6
    endloop
  endfacet
  facet normal 0.945817 0.324699 0
    outer loop
      vertex -5.27684 -2.85568 -3
      vertex -5.91817 -0.987567 -6
      vertex -5.91817 -0.987567 -3
    endloop
  endfacet
  facet normal 0.945817 0.324699 0
    outer loop
      vertex -5.91817 -0.987567 -6
      vertex -5.27684 -2.85568 -3
      vertex -5.27684 -2.85568 -6
    endloop
  endfacet
  facet normal 0.546948 -0.837166 0
    outer loop
      vertex -4.06369 4.41434 -6
      vertex -2.41017 5.49464 -3
      vertex -4.06369 4.41434 -3
    endloop
  endfacet
  facet normal 0.546948 -0.837166 0
    outer loop
      vertex -2.41017 5.49464 -3
      vertex -4.06369 4.41434 -6
      vertex -2.41017 5.49464 -6
    endloop
  endfacet
  facet normal -0.986361 0.164595 0
    outer loop
      vertex 5.6749 -1.9482 -6
      vertex 6 0 -3
      vertex 6 0 -6
    endloop
  endfacet
  facet normal -0.986361 0.164595 0
    outer loop
      vertex 6 0 -3
      vertex 5.6749 -1.9482 -6
      vertex 5.6749 -1.9482 -3
    endloop
  endfacet
  facet normal 0.245486 0.9694 -0
    outer loop
      vertex -0.495476 -5.97951 -6
      vertex -2.41017 -5.49464 -3
      vertex -0.495476 -5.97951 -3
    endloop
  endfacet
  facet normal 0.245486 0.9694 0
    outer loop
      vertex -2.41017 -5.49464 -3
      vertex -0.495476 -5.97951 -6
      vertex -2.41017 -5.49464 -6
    endloop
  endfacet
  facet normal 0.78914 0.614213 0
    outer loop
      vertex -4.06369 -4.41434 -3
      vertex -5.27684 -2.85568 -6
      vertex -5.27684 -2.85568 -3
    endloop
  endfacet
  facet normal 0.78914 0.614213 0
    outer loop
      vertex -5.27684 -2.85568 -6
      vertex -4.06369 -4.41434 -3
      vertex -4.06369 -4.41434 -6
    endloop
  endfacet
  facet normal -0.677282 0.735724 0
    outer loop
      vertex 4.73484 -3.68528 -6
      vertex 3.28169 -5.023 -3
      vertex 4.73484 -3.68528 -3
    endloop
  endfacet
  facet normal -0.677282 0.735724 0
    outer loop
      vertex 3.28169 -5.023 -3
      vertex 4.73484 -3.68528 -6
      vertex 3.28169 -5.023 -6
    endloop
  endfacet
  facet normal -0.879474 0.475947 0
    outer loop
      vertex 4.73484 -3.68528 -6
      vertex 5.6749 -1.9482 -3
      vertex 5.6749 -1.9482 -6
    endloop
  endfacet
  facet normal -0.879474 0.475947 0
    outer loop
      vertex 5.6749 -1.9482 -3
      vertex 4.73484 -3.68528 -6
      vertex 4.73484 -3.68528 -3
    endloop
  endfacet
endsolid OpenSCAD_Model
